<svg width="75" height="75" viewBox="0 0 75 75" fill="none" xmlns="http://www.w3.org/2000/svg">
<g clip-path="url(#clip0_948_2016)">
<path d="M59.375 12.5H55.9375C55.2122 8.97316 53.2932 5.80421 50.5039 3.52724C47.7146 1.25028 44.2256 0.00454539 40.625 0L34.375 0C30.7744 0.00454539 27.2854 1.25028 24.4961 3.52724C21.7068 5.80421 19.7878 8.97316 19.0625 12.5H15.625C11.4825 12.505 7.51112 14.1528 4.58194 17.0819C1.65276 20.0111 0.00496206 23.9825 0 28.125L0 59.375C0.00496206 63.5175 1.65276 67.4889 4.58194 70.4181C7.51112 73.3472 11.4825 74.995 15.625 75H59.375C63.5175 74.995 67.4889 73.3472 70.4181 70.4181C73.3472 67.4889 74.995 63.5175 75 59.375V28.125C74.995 23.9825 73.3472 20.0111 70.4181 17.0819C67.4889 14.1528 63.5175 12.505 59.375 12.5ZM34.375 6.25H40.625C42.5571 6.25801 44.4395 6.86276 46.0147 7.98152C47.5899 9.10029 48.781 10.6784 49.425 12.5H25.575C26.219 10.6784 27.4101 9.10029 28.9853 7.98152C30.5605 6.86276 32.4429 6.25801 34.375 6.25ZM15.625 18.75H59.375C61.8614 18.75 64.246 19.7377 66.0041 21.4959C67.7623 23.254 68.75 25.6386 68.75 28.125V37.5H6.25V28.125C6.25 25.6386 7.23772 23.254 8.99587 21.4959C10.754 19.7377 13.1386 18.75 15.625 18.75ZM59.375 68.75H15.625C13.1386 68.75 10.754 67.7623 8.99587 66.0041C7.23772 64.246 6.25 61.8614 6.25 59.375V43.75H34.375V46.875C34.375 47.7038 34.7042 48.4987 35.2903 49.0847C35.8763 49.6708 36.6712 50 37.5 50C38.3288 50 39.1237 49.6708 39.7097 49.0847C40.2958 48.4987 40.625 47.7038 40.625 46.875V43.75H68.75V59.375C68.75 61.8614 67.7623 64.246 66.0041 66.0041C64.246 67.7623 61.8614 68.75 59.375 68.75Z" fill="#2FAD66"/>
</g>
<defs>
<clipPath id="clip0_948_2016">
<rect width="75" height="75" fill="white"/>
</clipPath>
</defs>
</svg>
