<svg width="75" height="75" viewBox="0 0 75 75" fill="none" xmlns="http://www.w3.org/2000/svg">
<g clip-path="url(#clip0_1250_1391)">
<path d="M71.875 68.75H15.625C13.1386 68.75 10.754 67.7623 8.99587 66.0041C7.23772 64.246 6.25 61.8614 6.25 59.375V3.125C6.25 2.2962 5.92076 1.50134 5.33471 0.915291C4.74866 0.32924 3.9538 0 3.125 0C2.2962 0 1.50134 0.32924 0.915291 0.915291C0.32924 1.50134 0 2.2962 0 3.125L0 59.375C0.00496206 63.5175 1.65276 67.4889 4.58194 70.4181C7.51112 73.3472 11.4825 74.995 15.625 75H71.875C72.7038 75 73.4987 74.6708 74.0847 74.0847C74.6708 73.4987 75 72.7038 75 71.875C75 71.0462 74.6708 70.2513 74.0847 69.6653C73.4987 69.0792 72.7038 68.75 71.875 68.75Z" fill="white"/>
<path d="M18.75 62.4998C19.5788 62.4998 20.3736 62.1705 20.9597 61.5845C21.5457 60.9984 21.875 60.2036 21.875 59.3748V37.4998C21.875 36.671 21.5457 35.8761 20.9597 35.29C20.3736 34.704 19.5788 34.3748 18.75 34.3748C17.9212 34.3748 17.1263 34.704 16.5403 35.29C15.9542 35.8761 15.625 36.671 15.625 37.4998V59.3748C15.625 60.2036 15.9542 60.9984 16.5403 61.5845C17.1263 62.1705 17.9212 62.4998 18.75 62.4998Z" fill="white"/>
<path d="M31.249 31.25V59.375C31.249 60.2038 31.5783 60.9986 32.1643 61.5847C32.7504 62.1707 33.5452 62.5 34.374 62.5C35.2028 62.5 35.9977 62.1707 36.5838 61.5847C37.1698 60.9986 37.4991 60.2038 37.4991 59.375V31.25C37.4991 30.4212 37.1698 29.6263 36.5838 29.0403C35.9977 28.4542 35.2028 28.125 34.374 28.125C33.5452 28.125 32.7504 28.4542 32.1643 29.0403C31.5783 29.6263 31.249 30.4212 31.249 31.25Z" fill="white"/>
<path d="M46.875 40.625V59.375C46.875 60.2038 47.2042 60.9986 47.7903 61.5847C48.3764 62.1707 49.1712 62.5 50 62.5C50.8288 62.5 51.6237 62.1707 52.2097 61.5847C52.7958 60.9986 53.125 60.2038 53.125 59.375V40.625C53.125 39.7962 52.7958 39.0013 52.2097 38.4153C51.6237 37.8292 50.8288 37.5 50 37.5C49.1712 37.5 48.3764 37.8292 47.7903 38.4153C47.2042 39.0013 46.875 39.7962 46.875 40.625Z" fill="white"/>
<path d="M62.501 28.1248V59.3748C62.501 60.2036 62.8302 60.9984 63.4163 61.5845C64.0023 62.1705 64.7972 62.4998 65.626 62.4998C66.4548 62.4998 67.2497 62.1705 67.8357 61.5845C68.4218 60.9984 68.751 60.2036 68.751 59.3748V28.1248C68.751 27.296 68.4218 26.5011 67.8357 25.915C67.2497 25.329 66.4548 24.9998 65.626 24.9998C64.7972 24.9998 64.0023 25.329 63.4163 25.915C62.8302 26.5011 62.501 27.296 62.501 28.1248Z" fill="white"/>
<path d="M18.7493 28.1247C19.5781 28.1245 20.3728 27.7952 20.9587 27.2091L32.165 16.0028C32.7606 15.4354 33.5517 15.1189 34.3743 15.1189C35.197 15.1189 35.9881 15.4354 36.5837 16.0028L43.3712 22.7903C45.1293 24.5479 47.5134 25.5352 49.9993 25.5352C52.4852 25.5352 54.8694 24.5479 56.6275 22.7903L74.0837 5.33406C74.653 4.74468 74.9679 3.9553 74.9608 3.13593C74.9537 2.31657 74.625 1.53278 74.0456 0.953377C73.4662 0.373977 72.6824 0.0453241 71.8631 0.0382041C71.0437 0.031084 70.2543 0.346067 69.665 0.915311L52.2087 18.3684C51.6227 18.9543 50.828 19.2834 49.9993 19.2834C49.1707 19.2834 48.376 18.9543 47.79 18.3684L41.0025 11.5841C39.2444 9.82652 36.8602 8.83919 34.3743 8.83919C31.8884 8.83919 29.5043 9.82652 27.7462 11.5841L16.54 22.7903C16.1031 23.2273 15.8055 23.7841 15.685 24.3902C15.5645 24.9963 15.6264 25.6245 15.8628 26.1955C16.0993 26.7664 16.4997 27.2544 17.0135 27.5978C17.5273 27.9412 18.1314 28.1246 18.7493 28.1247Z" fill="white"/>
</g>
<defs>
<clipPath id="clip0_1250_1391">
<rect width="75" height="75" fill="white"/>
</clipPath>
</defs>
</svg>
