<svg width="75" height="75" viewBox="0 0 75 75" fill="none" xmlns="http://www.w3.org/2000/svg">
<g clip-path="url(#clip0_957_1215)">
<path d="M48.2583 25.9734C47.5623 24.7661 46.551 23.7707 45.3328 23.0939C44.1145 22.4171 42.7351 22.0843 41.3423 22.1312H33.6579C31.6198 22.1312 29.6653 22.9408 28.2242 24.3819C26.7831 25.8231 25.9734 27.7776 25.9734 29.8157C25.9734 31.8537 26.7831 33.8083 28.2242 35.2494C29.6653 36.6905 31.6198 37.5001 33.6579 37.5001H41.3423C43.3803 37.5001 45.3349 38.3097 46.776 39.7508C48.2171 41.1919 49.0267 43.1465 49.0267 45.1845C49.0267 47.2225 48.2171 49.1771 46.776 50.6182C45.3349 52.0593 43.3803 52.8689 41.3423 52.8689H33.6579C32.265 52.9158 30.8857 52.5831 29.6674 51.9063C28.4492 51.2295 27.4379 50.2341 26.7419 49.0267M37.5001 18.289V56.7112M2.92017 37.5001C2.92017 42.0412 3.8146 46.5378 5.55241 50.7332C7.29021 54.9287 9.83735 58.7407 13.0484 61.9518C16.2594 65.1628 20.0715 67.71 24.2669 69.4478C28.4624 71.1856 32.959 72.08 37.5001 72.08C42.0412 72.08 46.5378 71.1856 50.7332 69.4478C54.9287 67.71 58.7407 65.1628 61.9518 61.9518C65.1628 58.7407 67.71 54.9287 69.4478 50.7332C71.1856 46.5378 72.08 42.0412 72.08 37.5001C72.08 32.959 71.1856 28.4624 69.4478 24.2669C67.71 20.0715 65.1628 16.2594 61.9518 13.0484C58.7407 9.83735 54.9287 7.29021 50.7332 5.55241C46.5378 3.8146 42.0412 2.92017 37.5001 2.92017C32.959 2.92017 28.4624 3.8146 24.2669 5.55241C20.0715 7.29021 16.2594 9.83735 13.0484 13.0484C9.83735 16.2594 7.29021 20.0715 5.55241 24.2669C3.8146 28.4624 2.92017 32.959 2.92017 37.5001Z" stroke="#2FAD66" stroke-width="6" stroke-linecap="round" stroke-linejoin="round"/>
</g>
<defs>
<clipPath id="clip0_957_1215">
<rect width="75" height="75" fill="white"/>
</clipPath>
</defs>
</svg>
