<svg width="75" height="75" viewBox="0 0 75 75" fill="none" xmlns="http://www.w3.org/2000/svg">
<path d="M53.125 0C52.2962 0 51.5013 0.32924 50.9153 0.915291C50.3292 1.50134 50 2.2962 50 3.125C50 12.3406 41.9281 15.625 34.375 15.625H12.5C9.1848 15.625 6.00537 16.942 3.66117 19.2862C1.31696 21.6304 0 24.8098 0 28.125L0 34.375C0.00682551 36.2461 0.435818 38.0914 1.25501 39.7737C2.0742 41.4559 3.26246 42.9315 4.73125 44.0906L15.8938 69.0031C16.6876 70.7878 17.9818 72.304 19.6196 73.3684C21.2574 74.4327 23.1686 74.9994 25.1219 75C26.676 74.999 28.2051 74.6093 29.5702 73.8665C30.9353 73.1236 32.0929 72.0512 32.9377 70.7468C33.7824 69.4423 34.2876 67.9473 34.4071 66.3978C34.5266 64.8483 34.2567 63.2935 33.6219 61.875L26.7469 46.875H34.375C41.9281 46.875 50 50.1594 50 59.375C50 60.2038 50.3292 60.9987 50.9153 61.5847C51.5013 62.1708 52.2962 62.5 53.125 62.5C53.9538 62.5 54.7487 62.1708 55.3347 61.5847C55.9208 60.9987 56.25 60.2038 56.25 59.375V3.125C56.25 2.2962 55.9208 1.50134 55.3347 0.915291C54.7487 0.32924 53.9538 0 53.125 0V0ZM27.9281 64.4344C28.1351 64.9018 28.2222 65.4136 28.1814 65.9232C28.1406 66.4328 27.9733 66.9241 27.6946 67.3527C27.4159 67.7813 27.0347 68.1336 26.5854 68.3776C26.1362 68.6216 25.6331 68.7496 25.1219 68.75C24.3762 68.7495 23.6468 68.5324 23.0221 68.1253C22.3975 67.7181 21.9045 67.1383 21.6031 66.4563L12.8281 46.875H19.8719L27.9281 64.4344ZM50 45.625C45.5353 42.185 40.0074 40.416 34.375 40.625H12.5C10.8424 40.625 9.25269 39.9665 8.08058 38.7944C6.90848 37.6223 6.25 36.0326 6.25 34.375V28.125C6.25 26.4674 6.90848 24.8777 8.08058 23.7056C9.25269 22.5335 10.8424 21.875 12.5 21.875H34.375C40.0055 22.0884 45.5332 20.3251 50 16.8906V45.625ZM74.6875 48.2875C74.5042 48.6549 74.2503 48.9826 73.9403 49.2518C73.6303 49.5211 73.2702 49.7266 72.8808 49.8566C72.4913 49.9866 72.08 50.0386 71.6704 50.0096C71.2609 49.9806 70.861 49.8711 70.4938 49.6875L64.2438 46.5625C63.502 46.192 62.9378 45.5421 62.6752 44.7556C62.4127 43.9691 62.4733 43.1105 62.8438 42.3687C63.2142 41.627 63.8642 41.0627 64.6507 40.8002C65.4372 40.5376 66.2957 40.5983 67.0375 40.9688L73.2875 44.0938C74.0255 44.464 74.5869 45.1112 74.8492 45.8941C75.1116 46.6769 75.0534 47.5318 74.6875 48.2719V48.2875ZM62.8438 20.1625C62.6601 19.7952 62.5507 19.3954 62.5217 18.9858C62.4927 18.5763 62.5447 18.165 62.6747 17.7755C62.8047 17.386 63.0102 17.026 63.2794 16.716C63.5487 16.406 63.8764 16.1521 64.2438 15.9688L70.4938 12.8438C71.2355 12.4733 72.0941 12.4126 72.8806 12.6752C73.6671 12.9377 74.317 13.502 74.6875 14.2438C75.058 14.9855 75.1186 15.8441 74.8561 16.6306C74.5935 17.4171 74.0293 18.067 73.2875 18.4375L67.0375 21.5625C66.6702 21.7461 66.2704 21.8556 65.8608 21.8846C65.4513 21.9136 65.04 21.8616 64.6505 21.7316C64.261 21.6015 63.901 21.3961 63.591 21.1268C63.281 20.8576 63.0271 20.5299 62.8438 20.1625ZM62.5 31.25C62.5 30.4212 62.8292 29.6263 63.4153 29.0403C64.0014 28.4542 64.7962 28.125 65.625 28.125H71.875C72.7038 28.125 73.4987 28.4542 74.0847 29.0403C74.6708 29.6263 75 30.4212 75 31.25C75 32.0788 74.6708 32.8737 74.0847 33.4597C73.4987 34.0458 72.7038 34.375 71.875 34.375H65.625C64.7962 34.375 64.0014 34.0458 63.4153 33.4597C62.8292 32.8737 62.5 32.0788 62.5 31.25Z" fill="#1A2342"/>
</svg>
