<svg width="75" height="75" viewBox="0 0 75 75" fill="none" xmlns="http://www.w3.org/2000/svg">
<g clip-path="url(#clip0_1250_1337)">
<path d="M71.8745 59.373H65.6245V53.123C65.6245 52.2942 65.2952 51.4994 64.7092 50.9133C64.1231 50.3273 63.3283 49.998 62.4995 49.998C61.6707 49.998 60.8758 50.3273 60.2898 50.9133C59.7037 51.4994 59.3745 52.2942 59.3745 53.123V59.373H53.1245C52.2957 59.373 51.5008 59.7023 50.9148 60.2883C50.3287 60.8744 49.9995 61.6692 49.9995 62.498C49.9995 63.3268 50.3287 64.1217 50.9148 64.7077C51.5008 65.2938 52.2957 65.623 53.1245 65.623H59.3745V71.873C59.3745 72.7018 59.7037 73.4967 60.2898 74.0827C60.8758 74.6688 61.6707 74.998 62.4995 74.998C63.3283 74.998 64.1231 74.6688 64.7092 74.0827C65.2952 73.4967 65.6245 72.7018 65.6245 71.873V65.623H71.8745C72.7033 65.623 73.4981 65.2938 74.0842 64.7077C74.6702 64.1217 74.9995 63.3268 74.9995 62.498C74.9995 61.6692 74.6702 60.8744 74.0842 60.2883C73.4981 59.7023 72.7033 59.373 71.8745 59.373Z" fill="white"/>
<path d="M65.625 18.75H56.25C56.25 13.7772 54.2746 9.00805 50.7583 5.49175C47.2419 1.97544 42.4728 0 37.5 0C32.5272 0 27.7581 1.97544 24.2417 5.49175C20.7254 9.00805 18.75 13.7772 18.75 18.75H9.375C6.8886 18.75 4.50403 19.7377 2.74587 21.4959C0.98772 23.254 0 25.6386 0 28.125L0 59.375C0.00496206 63.5175 1.65276 67.4889 4.58194 70.4181C7.51112 73.3472 11.4825 74.995 15.625 75H43.75C44.5788 75 45.3737 74.6708 45.9597 74.0847C46.5458 73.4987 46.875 72.7038 46.875 71.875C46.875 71.0462 46.5458 70.2513 45.9597 69.6653C45.3737 69.0792 44.5788 68.75 43.75 68.75H15.625C13.1386 68.75 10.754 67.7623 8.99587 66.0041C7.23772 64.246 6.25 61.8614 6.25 59.375V28.125C6.25 27.2962 6.57924 26.5013 7.16529 25.9153C7.75134 25.3292 8.5462 25 9.375 25H18.75V31.25C18.75 32.0788 19.0792 32.8737 19.6653 33.4597C20.2513 34.0458 21.0462 34.375 21.875 34.375C22.7038 34.375 23.4987 34.0458 24.0847 33.4597C24.6708 32.8737 25 32.0788 25 31.25V25H50V31.25C50 32.0788 50.3292 32.8737 50.9153 33.4597C51.5013 34.0458 52.2962 34.375 53.125 34.375C53.9538 34.375 54.7487 34.0458 55.3347 33.4597C55.9208 32.8737 56.25 32.0788 56.25 31.25V25H65.625C66.4538 25 67.2487 25.3292 67.8347 25.9153C68.4208 26.5013 68.75 27.2962 68.75 28.125V43.75C68.75 44.5788 69.0792 45.3737 69.6653 45.9597C70.2513 46.5458 71.0462 46.875 71.875 46.875C72.7038 46.875 73.4987 46.5458 74.0847 45.9597C74.6708 45.3737 75 44.5788 75 43.75V28.125C75 25.6386 74.0123 23.254 72.2541 21.4959C70.496 19.7377 68.1114 18.75 65.625 18.75ZM25 18.75C25 15.4348 26.317 12.2554 28.6612 9.91117C31.0054 7.56696 34.1848 6.25 37.5 6.25C40.8152 6.25 43.9946 7.56696 46.3388 9.91117C48.683 12.2554 50 15.4348 50 18.75H25Z" fill="white"/>
</g>
<defs>
<clipPath id="clip0_1250_1337">
<rect width="75" height="75" fill="white"/>
</clipPath>
</defs>
</svg>
