<svg width="75" height="75" viewBox="0 0 75 75" fill="none" xmlns="http://www.w3.org/2000/svg">
<g clip-path="url(#clip0_948_2013)">
<path d="M75 31.2504C75.0001 31.0223 74.975 30.7948 74.925 30.5723L70.8625 12.2348C70.1077 8.75425 68.1792 5.63908 65.4004 3.41158C62.6215 1.18408 59.1614 -0.0203041 55.6 0.000384223H19.4C15.8408 -0.0174292 12.3835 1.18826 9.60728 3.41553C6.83102 5.64279 4.90437 8.75636 4.15 12.2348L0.0750043 30.5723C0.0250296 30.7948 -0.000123937 31.0223 4.27937e-06 31.2504V34.3754C-0.00251699 37.4179 1.10913 40.356 3.125 42.6348V59.3754C3.12997 63.5179 4.77776 67.4893 7.70694 70.4185C10.6361 73.3476 14.6075 74.9954 18.75 75.0004H56.25C60.3925 74.9954 64.3639 73.3476 67.2931 70.4185C70.2223 67.4893 71.87 63.5179 71.875 59.3754V42.6348C73.8909 40.356 75.0025 37.4179 75 34.3754V31.2504ZM6.25 31.591L10.25 13.591C10.7033 11.5043 11.8594 9.63655 13.525 8.30031C15.1907 6.96407 17.2647 6.24039 19.4 6.25038H21.875V15.6254C21.875 16.4542 22.2042 17.249 22.7903 17.8351C23.3763 18.4211 24.1712 18.7504 25 18.7504C25.8288 18.7504 26.6237 18.4211 27.2097 17.8351C27.7958 17.249 28.125 16.4542 28.125 15.6254V6.25038H46.875V15.6254C46.875 16.4542 47.2042 17.249 47.7903 17.8351C48.3763 18.4211 49.1712 18.7504 50 18.7504C50.8288 18.7504 51.6237 18.4211 52.2097 17.8351C52.7958 17.249 53.125 16.4542 53.125 15.6254V6.25038H55.6C57.7354 6.24039 59.8094 6.96407 61.475 8.30031C63.1406 9.63655 64.2967 11.5043 64.75 13.591L68.75 31.591V34.3754C68.75 36.033 68.0915 37.6227 66.9194 38.7948C65.7473 39.9669 64.1576 40.6254 62.5 40.6254H59.375C57.7174 40.6254 56.1277 39.9669 54.9556 38.7948C53.7835 37.6227 53.125 36.033 53.125 34.3754C53.125 33.5466 52.7958 32.7517 52.2097 32.1657C51.6237 31.5796 50.8288 31.2504 50 31.2504C49.1712 31.2504 48.3763 31.5796 47.7903 32.1657C47.2042 32.7517 46.875 33.5466 46.875 34.3754C46.875 36.033 46.2165 37.6227 45.0444 38.7948C43.8723 39.9669 42.2826 40.6254 40.625 40.6254H34.375C32.7174 40.6254 31.1277 39.9669 29.9556 38.7948C28.7835 37.6227 28.125 36.033 28.125 34.3754C28.125 33.5466 27.7958 32.7517 27.2097 32.1657C26.6237 31.5796 25.8288 31.2504 25 31.2504C24.1712 31.2504 23.3763 31.5796 22.7903 32.1657C22.2042 32.7517 21.875 33.5466 21.875 34.3754C21.875 36.033 21.2165 37.6227 20.0444 38.7948C18.8723 39.9669 17.2826 40.6254 15.625 40.6254H12.5C10.8424 40.6254 9.25269 39.9669 8.08059 38.7948C6.90848 37.6227 6.25 36.033 6.25 34.3754V31.591ZM56.25 68.7504H18.75C16.2636 68.7504 13.879 67.7627 12.1209 66.0045C10.3627 64.2464 9.375 61.8618 9.375 59.3754V46.4785C10.3956 46.7428 11.4457 46.8761 12.5 46.8754H15.625C17.3994 46.8763 19.1536 46.4985 20.7703 45.7672C22.3871 45.0359 23.8291 43.968 25 42.6348C26.1709 43.968 27.613 45.0359 29.2297 45.7672C30.8464 46.4985 32.6006 46.8763 34.375 46.8754H40.625C42.3994 46.8763 44.1536 46.4985 45.7703 45.7672C47.387 45.0359 48.8291 43.968 50 42.6348C51.1709 43.968 52.613 45.0359 54.2297 45.7672C55.8464 46.4985 57.6006 46.8763 59.375 46.8754H62.5C63.5543 46.8761 64.6044 46.7428 65.625 46.4785V59.3754C65.625 61.8618 64.6373 64.2464 62.8791 66.0045C61.121 67.7627 58.7364 68.7504 56.25 68.7504Z" fill="#1A2342"/>
</g>
<defs>
<clipPath id="clip0_948_2013">
<rect width="75" height="75" fill="white"/>
</clipPath>
</defs>
</svg>
