<svg width="75" height="75" viewBox="0 0 75 75" fill="none" xmlns="http://www.w3.org/2000/svg">
<g clip-path="url(#clip0_1250_1384)">
<path d="M71.8746 34.375C71.0458 34.375 70.251 34.7042 69.6649 35.2903C69.0789 35.8763 68.7496 36.6712 68.7496 37.5C68.775 44.7665 66.2759 51.8162 61.6794 57.4442C57.0829 63.0722 50.6744 66.9291 43.5493 68.3557C36.4242 69.7822 29.0248 68.6898 22.6158 65.2652C16.2069 61.8406 11.1863 56.2964 8.41223 49.5802C5.63814 42.8641 5.28277 35.3929 7.40686 28.4438C9.53096 21.4946 14.0026 15.4989 20.0576 11.4815C26.1125 7.46402 33.3748 5.67423 40.6032 6.41803C47.8316 7.16184 54.5772 10.393 59.6871 15.5594C59.5843 15.5874 59.48 15.6093 59.3746 15.625H49.9996C49.1708 15.625 48.376 15.9542 47.7899 16.5403C47.2039 17.1263 46.8746 17.9212 46.8746 18.75C46.8746 19.5788 47.2039 20.3737 47.7899 20.9597C48.376 21.5458 49.1708 21.875 49.9996 21.875H59.3746C61.861 21.875 64.2456 20.8873 66.0037 19.1291C67.7619 17.371 68.7496 14.9864 68.7496 12.5V3.125C68.7496 2.2962 68.4204 1.50134 67.8343 0.915291C67.2483 0.32924 66.4534 0 65.6246 0C64.7958 0 64.001 0.32924 63.4149 0.915291C62.8289 1.50134 62.4996 2.2962 62.4996 3.125V9.57812C56.1013 3.85791 47.9337 0.50677 39.3617 0.0846956C30.7896 -0.337379 22.3323 2.19518 15.403 7.25917C8.47372 12.3232 3.49223 19.6118 1.29095 27.9072C-0.910329 36.2026 -0.198052 45.0021 3.30876 52.8355C6.81557 60.6688 12.9045 67.0614 20.558 70.945C28.2115 74.8286 36.9661 75.9679 45.3587 74.1727C53.7513 72.3774 61.2736 67.7562 66.6685 61.0814C72.0635 54.4066 75.0043 46.0825 74.9996 37.5C74.9996 36.6712 74.6704 35.8763 74.0843 35.2903C73.4983 34.7042 72.7034 34.375 71.8746 34.375Z" fill="white"/>
<path d="M37.501 18.75C36.6722 18.75 35.8773 19.0792 35.2913 19.6653C34.7052 20.2513 34.376 21.0462 34.376 21.875V37.5C34.3762 38.3287 34.7055 39.1235 35.2916 39.7094L44.6666 49.0844C45.256 49.6536 46.0454 49.9686 46.8647 49.9615C47.6841 49.9544 48.4679 49.6257 49.0473 49.0463C49.6267 48.4669 49.9553 47.6831 49.9625 46.8638C49.9696 46.0444 49.6546 45.255 49.0854 44.6656L40.626 36.2063V21.875C40.626 21.0462 40.2967 20.2513 39.7107 19.6653C39.1246 19.0792 38.3298 18.75 37.501 18.75Z" fill="white"/>
</g>
<defs>
<clipPath id="clip0_1250_1384">
<rect width="75" height="75" fill="white"/>
</clipPath>
</defs>
</svg>
