<svg width="131" height="28" viewBox="0 0 131 28" fill="none" xmlns="http://www.w3.org/2000/svg">
<path d="M36.9017 11.5976L36.1968 11.5057C34.3446 11.2655 32.7127 11.7024 31.5055 12.7085V11.6734H28.4557V27.6517H31.5055V19.8802C31.5055 17.6633 32.0208 16.038 32.9947 15.1802C33.7239 14.5385 34.7335 14.2886 35.9926 14.4418L36.9001 14.5514V11.5992L36.9017 11.5976Z" fill="white"/>
<path d="M49.6176 22.302C49.0083 23.6322 47.464 25.051 44.9587 25.051C42.2055 25.051 40.2642 23.4677 39.8202 20.946H52.5572L52.6188 20.2075C52.6512 19.8254 52.6512 19.6287 52.6512 19.2691C52.6512 17.0715 51.9155 15.0787 50.5802 13.6582C49.1445 12.1313 47.1205 11.3235 44.7238 11.3235C40.0454 11.3235 36.6505 14.8239 36.6505 19.6464C36.6505 24.469 40.0665 27.9984 44.9571 27.9984C49.5479 27.9984 51.6254 25.1123 52.4551 23.3903L52.8651 22.539L49.9093 21.6635L49.616 22.302H49.6176ZM44.7254 14.2725C47.2728 14.2725 49.0019 15.6607 49.4864 18.0309L39.8591 18.0551C40.3873 15.8187 42.3157 14.2725 44.7238 14.2725H44.7254Z" fill="white"/>
<path d="M67.0314 22.302C66.4221 23.6322 64.8777 25.051 62.3725 25.051C59.6193 25.051 57.6779 23.4677 57.2339 20.946H69.9709L70.0325 20.2075C70.0649 19.8254 70.0649 19.6287 70.0649 19.2691C70.0649 17.0715 69.3292 15.0787 67.9939 13.6582C66.5582 12.1313 64.5342 11.3235 62.1375 11.3235C57.4592 11.3235 54.0642 14.8239 54.0642 19.6464C54.0642 24.469 57.4802 27.9984 62.3708 27.9984C66.9633 27.9984 69.0391 25.1123 69.8688 23.3903L70.2788 22.539L67.323 21.6635L67.0297 22.302H67.0314ZM62.1391 14.2725C64.6865 14.2725 66.4156 15.6607 66.9001 18.0309L57.2728 18.0551C57.8011 15.8187 59.7311 14.2725 62.1391 14.2725Z" fill="white"/>
<path d="M80.2513 24.3771C79.5091 24.7334 79.0489 24.8479 78.3569 24.8479C77.4981 24.8479 76.5128 24.6092 76.5128 22.7518V14.6191H81.8507V11.6718H76.5128V6.56386H73.4631V11.6718H70.4004V14.6191H73.4631V22.7518C73.4631 25.9459 75.2375 27.8533 78.2111 27.8533C79.2839 27.8533 80.2529 27.6453 81.3565 27.1793L82.0403 26.8907L81.0842 23.9756L80.2497 24.3771H80.2513Z" fill="white"/>
<path d="M95.8063 13.2599C94.3851 12.012 92.4973 11.3251 90.3744 11.3251C85.7058 11.3251 82.1845 14.9029 82.1845 19.648C82.1845 24.3932 85.7058 28 90.3744 28C92.5086 28 94.3932 27.3131 95.8063 26.0636V27.6517H98.8561V11.6734H95.8063V13.2599ZM90.5203 25.0817C87.4576 25.0817 85.2343 22.8082 85.2343 19.6771C85.2343 16.5459 87.4576 14.2725 90.5203 14.2725C93.583 14.2725 95.8355 16.6459 95.8355 19.6771C95.8355 22.7083 93.5004 25.0817 90.5203 25.0817Z" fill="white"/>
<path d="M103.88 6.36232C102.771 6.36232 101.903 7.20074 101.903 8.27133C101.903 9.34193 102.752 10.2384 103.88 10.2384C105.007 10.2384 105.857 9.39353 105.857 8.27133C105.857 7.14914 104.988 6.36232 103.88 6.36232Z" fill="white"/>
<path d="M105.419 11.6734H102.369V27.6517H105.419V11.6734Z" fill="white"/>
<path d="M111.953 4.85316H108.903V27.6501H111.953V4.85316Z" fill="white"/>
<path d="M127.95 11.6734V13.2599C126.529 12.012 124.641 11.3251 122.518 11.3251C117.85 11.3251 114.328 14.9029 114.328 19.648C114.328 24.3932 117.85 28 122.518 28C124.653 28 126.537 27.3131 127.95 26.0636V27.6517H131V11.6734H127.95ZM122.664 25.0817C119.602 25.0817 117.378 22.8082 117.378 19.6771C117.378 16.5459 119.602 14.2725 122.664 14.2725C125.727 14.2725 127.979 16.6459 127.979 19.6771C127.979 22.7083 125.644 25.0817 122.664 25.0817Z" fill="white"/>
<path d="M19.9449 5.4723H17.7378C17.4672 4.1792 16.8271 2.98606 15.8678 2.02188C14.5698 0.717494 12.8521 0 11.0355 0C9.21894 0 7.50123 0.717494 6.20322 2.02349C5.24389 2.98768 4.60218 4.18081 4.33318 5.47391H2.12608C0.951225 5.47391 0 6.4381 0 7.6264V25.6589C0 26.8472 0.952845 27.8114 2.12608 27.8114H8.93211C9.17681 27.8114 9.37451 27.6114 9.37451 27.3631V16.6039C9.37451 16.3556 9.5722 16.1557 9.8169 16.1557H12.2541C12.4988 16.1557 12.6965 16.3556 12.6965 16.6039V16.8587C12.6965 16.8925 12.7305 16.9135 12.7613 16.899C12.9331 16.8103 13.1065 16.7249 13.2815 16.6442C13.4306 16.5733 13.5829 16.5056 13.7352 16.4411C15.5826 15.6494 17.545 15.2496 19.5674 15.2496C20.2431 15.2496 20.9124 15.2947 21.5735 15.3834C21.8393 15.4189 22.0742 15.2109 22.0742 14.94V7.62801C22.0742 6.43971 21.1214 5.47553 19.9482 5.47553L19.9449 5.4723ZM11.0355 1.43499C13.5392 1.43499 15.6523 3.15052 16.2697 5.4723H5.80134C6.41874 3.15052 8.53185 1.43499 11.0355 1.43499Z" fill="white"/>
<path d="M19.5657 18.6097C20.2982 18.6097 21.0128 18.6774 21.708 18.8096C21.9187 18.8499 22.0726 19.0337 22.0726 19.2514V25.6589C22.0726 26.8472 21.1198 27.8114 19.9465 27.8114H13.1405C12.8958 27.8114 12.6981 27.6114 12.6981 27.3631V25.5396C12.6981 21.7344 15.73 18.6355 19.4896 18.6097C19.5155 18.6097 19.5414 18.6097 19.5657 18.6097Z" fill="white"/>
</svg>
