<svg width="56" height="56" viewBox="0 0 56 56" fill="none" xmlns="http://www.w3.org/2000/svg">
<rect width="56" height="56" rx="28" fill="#FFE6E6"/>
<path d="M37 18.9997C36.7187 18.7185 36.3372 18.5605 35.9395 18.5605C35.5417 18.5605 35.1603 18.7185 34.879 18.9997L28 25.8787L21.121 18.9997C20.8397 18.7185 20.4582 18.5605 20.0605 18.5605C19.6627 18.5605 19.2813 18.7185 19 18.9997C18.7188 19.281 18.5608 19.6625 18.5608 20.0602C18.5608 20.458 18.7188 20.8394 19 21.1207L25.879 27.9997L19 34.8787C18.7188 35.16 18.5608 35.5415 18.5608 35.9392C18.5608 36.337 18.7188 36.7184 19 36.9997C19.2813 37.2809 19.6627 37.4389 20.0605 37.4389C20.4582 37.4389 20.8397 37.2809 21.121 36.9997L28 30.1207L34.879 36.9997C35.1603 37.2809 35.5417 37.4389 35.9395 37.4389C36.3372 37.4389 36.7187 37.2809 37 36.9997C37.2812 36.7184 37.4392 36.337 37.4392 35.9392C37.4392 35.5415 37.2812 35.16 37 34.8787L30.121 27.9997L37 21.1207C37.2812 20.8394 37.4392 20.458 37.4392 20.0602C37.4392 19.6625 37.2812 19.281 37 18.9997V18.9997Z" fill="#FF0000"/>
</svg>
