<svg width="1920" height="1300" viewBox="0 0 1920 1300" fill="none" xmlns="http://www.w3.org/2000/svg">
<g clip-path="url(#clip0_858_1495)">
<rect width="1950" height="1300" transform="translate(-15)" fill="white"/>
<g opacity="0.6">
<mask id="mask0_858_1495" style="mask-type:luminance" maskUnits="userSpaceOnUse" x="-15" y="0" width="1950" height="1300">
<path d="M1935 0H-15V1300H1935V0Z" fill="white"/>
</mask>
<g mask="url(#mask0_858_1495)">
<path d="M-1250.32 1559.35C-1228.06 1435.04 -1102.29 1360.94 -980.9 1346.47C-859.512 1331.85 -735.85 1360.29 -613.162 1360.29C-284.425 1360.12 25.4625 1133.93 133.038 815.588C167.488 713.538 182.6 604.825 216.238 502.45C249.875 400.075 306.913 300.463 399.538 251.713C532.788 181.675 699.675 235.625 834.063 313.95C968.45 392.275 1094.39 495.95 1243.4 531.862C1439.21 578.987 1642.5 497.9 1792.33 367.088C1941.99 236.275 2047.77 60.45 2151.12 -112.45" stroke="#D4E8F7" stroke-miterlimit="10"/>
<path d="M-1257.64 1547.33C-1233.26 1423.66 -1107.81 1349.73 -986.262 1334.78C-933.775 1328.28 -880.637 1329.9 -827.5 1334.29C-757.787 1339.97 -687.912 1350.05 -618.525 1351.51C-476.987 1354.6 -339.025 1318.36 -217.8 1248C-124.2 1193.72 -40.8374 1122.06 25.6251 1036.1C73.2376 975 111.1 906.1 137.588 831.35C149.45 797.875 159.2 763.587 168.137 728.975C186.337 658.612 201.288 587.113 224.85 519.025C251.663 441.838 292.125 367.087 352.25 316.225C370.938 300.3 391.25 286.65 413.513 275.925C506.95 231.075 615.013 246.513 718.363 284.7C763.05 301.275 806.925 321.912 847.713 344.175C893.375 369.037 938.063 395.85 982.588 421.362C1070.01 471.737 1156.3 518.05 1249.74 534.95C1310.51 545.838 1370.48 543.075 1429.79 529.75C1550.36 502.775 1668.83 430.787 1767.63 338.975C1794.76 313.787 1820.6 287.3 1845.63 259.675C1956.78 136.987 2049.72 -4.87498 2141.37 -138.612" stroke="#D4E8F7" stroke-miterlimit="10"/>
<path d="M-1264.95 1535.14C-1238.3 1412.13 -1113.34 1338.19 -991.625 1322.75C-938.975 1316.09 -885.837 1317.71 -832.537 1322.26C-762.825 1328.27 -692.95 1339.32 -623.725 1342.41C-482.512 1348.75 -344.712 1318.36 -222.35 1250.93C-127.775 1198.93 -43.1125 1130.68 25.95 1047.96C75.35 988.813 114.675 921.05 142.3 846.787C154.65 813.637 164.725 779.35 174.15 744.737C193.163 674.537 208.925 602.875 233.463 535.437C261.413 458.737 303.338 385.775 365.413 337.35C384.588 322.4 405.063 309.562 427.488 299.812C521.413 259.025 628.013 278.2 731.2 316.55C776.05 333.125 820.25 353.112 861.525 373.912C907.675 397.15 952.85 421.525 997.213 443.95C1084.31 488.475 1168.33 527.638 1256.4 537.388C1313.44 543.725 1367.88 536.413 1422.64 519.513C1533.63 484.9 1646.24 406.412 1743.41 310.375C1770.06 284.05 1795.9 256.425 1821.09 228.15C1933.38 101.725 2033.31 -38.8375 2131.95 -165.425" stroke="#D4E8F7" stroke-miterlimit="10"/>
<path d="M-1272.26 1522.95C-1243.34 1400.59 -1118.86 1326.65 -996.987 1310.89C-944.337 1304.06 -890.875 1305.52 -837.575 1310.4C-767.7 1316.9 -698.15 1328.92 -628.925 1333.47C-487.875 1343.06 -350.562 1318.52 -226.9 1254.01C-131.35 1204.29 -45.225 1139.45 26.275 1059.99C77.625 1002.79 118.25 936.162 147.012 862.225C159.85 829.237 170.412 795.275 180.325 760.5C200.15 690.462 216.725 618.638 242.238 551.688C271.325 475.475 314.55 404.3 378.737 358.313C398.4 344.338 419.038 332.313 441.463 323.7C535.713 286.975 641.013 310.05 744.038 348.4C789.05 365.138 833.413 384.313 875.175 403.65C921.813 425.263 967.313 447.2 1011.68 466.7C1098.45 505.05 1180.35 537.387 1262.9 539.987C1316.36 541.612 1365.28 530.075 1415.16 509.438C1516.56 467.513 1623.33 382.038 1718.71 281.938C1744.88 254.313 1770.55 225.875 1795.9 196.787C1909.16 66.625 2016.09 -72.6375 2122.04 -191.913" stroke="#D4E8F7" stroke-miterlimit="10"/>
<path d="M-1279.57 1510.76C-1248.37 1389.21 -1124.39 1315.11 -1002.19 1299.02C-949.375 1292.04 -895.912 1293.34 -842.45 1298.7C-772.575 1305.52 -703.025 1318.52 -633.962 1324.7C-493.237 1337.37 -356.087 1318.85 -231.45 1257.43C-134.762 1209.98 -47.1749 1148.71 26.4376 1072.34C79.9001 1017.09 121.663 951.6 151.4 878.15C164.725 845.487 175.775 811.525 186.012 776.75C206.65 706.712 224.038 635.05 250.688 568.425C280.913 492.862 325.438 423.15 391.738 379.925C411.888 366.762 432.688 355.875 455.275 348.075C550.013 315.413 653.688 342.387 756.875 380.737C801.888 397.637 846.738 416 888.825 434.037C935.95 454.187 981.938 473.525 1025.98 490.1C1112.43 522.6 1192.21 547.625 1269.08 543.237C1318.96 540.312 1362.35 524.225 1407.53 499.85C1499.5 450.45 1600.09 358.313 1694.01 254.15C1719.85 225.388 1745.36 195.812 1770.88 165.912C1885.11 32.175 1999.02 -106.113 2112.12 -217.913" stroke="#D4E8F7" stroke-miterlimit="10"/>
<path d="M-1286.89 1498.57C-1253.41 1377.67 -1129.91 1303.57 -1007.55 1287.16C-954.737 1280.01 -901.112 1281.31 -847.487 1286.84C-777.612 1293.99 -708.062 1307.96 -639.162 1315.76C-498.762 1331.69 -361.937 1318.85 -236 1260.51C-138.337 1215.34 -49.2875 1157.65 26.7625 1084.53C82.175 1031.23 125.238 966.713 156.113 893.75C169.925 861.25 181.463 827.45 192.025 792.838C213.475 722.963 231.675 651.137 259.3 585.162C290.662 510.087 336.488 442.163 404.9 401.375C425.375 389.188 446.5 379.112 469.088 372.287C564.15 343.85 666.525 374.4 769.55 413.075C814.725 429.975 859.9 447.688 902.475 464.263C950.088 482.788 996.4 499.687 1040.44 513.175C1126.56 539.662 1204.56 557.7 1275.58 546.162C1322.05 538.687 1359.59 518.05 1400.21 490.1C1482.76 433.062 1577.34 334.425 1669.64 226.037C1694.99 196.137 1720.5 165.588 1746.18 134.875C1861.39 -2.59999 1982.45 -139.588 2102.7 -244.075" stroke="#D4E8F7" stroke-miterlimit="10"/>
<path d="M-1294.36 1486.55C-1258.61 1366.3 -1135.6 1292.36 -1013.08 1275.46C-960.1 1268.15 -906.313 1269.29 -852.688 1275.14C-782.65 1282.77 -713.425 1297.73 -644.525 1306.99C-504.288 1326 -367.788 1319.17 -240.713 1263.76C-142.075 1221.02 -51.4 1166.75 26.925 1096.71C84.45 1045.36 128.65 981.988 160.662 909.513C174.8 877.175 186.825 843.538 198.037 808.925C220.3 739.213 239.475 667.225 267.912 601.738C300.412 527.313 347.538 460.85 418.063 422.662C439.025 411.287 460.313 402.188 483.063 396.338C578.45 371.963 679.362 406.413 782.387 445.088C827.725 462.15 873.225 479.05 916.125 494.162C964.225 511.062 1010.86 525.525 1054.9 536.088C1140.7 556.725 1217.07 567.287 1282.07 548.925C1325.3 536.737 1356.99 511.713 1392.74 480.025C1465.7 415.513 1554.42 310.05 1645.1 197.6C1669.96 166.4 1695.48 134.875 1721.31 103.512C1837.66 -37.7 1965.55 -173.388 2092.95 -270.725" stroke="#D4E8F7" stroke-miterlimit="10"/>
<path d="M-1301.68 1474.36C-1263.65 1354.93 -1141.13 1280.83 -1018.44 1263.44C-965.463 1255.96 -911.513 1257.1 -857.725 1263.28C-787.688 1271.24 -718.463 1287.16 -649.725 1298.05C-509.813 1320.31 -373.475 1319.34 -245.262 1266.85C-145.65 1226.39 -53.35 1175.69 27.25 1108.74C86.725 1059.34 132.225 997.1 165.375 925.112C180 893.1 192.513 859.462 204.05 824.85C227.125 755.137 247.113 683.15 276.525 618.15C310.163 544.213 358.587 479.375 431.225 443.95C452.512 433.55 474.125 425.262 496.875 420.387C592.75 400.075 692.2 438.425 795.063 477.1C840.4 494.162 886.387 510.412 929.612 524.062C978.037 539.337 1025.32 551.363 1069.2 558.838C1154.67 573.463 1229.43 576.55 1288.25 551.525C1328.39 534.463 1353.9 505.212 1385.1 469.95C1448.64 397.8 1531.35 285.837 1620.4 169.162C1644.94 136.825 1670.12 104.325 1696.29 72.15C1813.61 -72.8 1948.65 -207.35 2083.2 -297.213" stroke="#D4E8F7" stroke-miterlimit="10"/>
<path d="M-1308.99 1462.18C-1268.69 1343.39 -1146.65 1269.29 -1023.64 1251.57C-970.5 1243.94 -916.388 1244.91 -862.6 1251.41C-792.563 1259.86 -723.338 1276.76 -654.925 1289.11C-515.338 1314.63 -379.325 1319.5 -249.812 1270.1C-149.225 1231.91 -55.4625 1184.79 27.575 1120.93C89.1625 1073.48 135.8 1012.38 170.087 940.713C185.2 908.863 198.2 875.388 210.225 840.775C234.112 771.225 254.912 699.075 285.3 634.562C320.075 561.112 369.637 497.9 444.55 465.075C466.325 455.488 488.1 448.175 511.012 444.438C607.212 428.188 705.2 470.275 808.063 509.112C853.563 526.337 899.875 541.775 943.588 554.125C992.5 567.938 1040.11 577.362 1083.99 581.912C1169.14 590.687 1242.59 585.975 1295.07 554.45C1332.12 532.35 1351.62 499.038 1377.95 460.2C1431.9 380.413 1508.76 261.95 1596.03 141.05C1620.08 107.575 1645.26 73.9375 1671.59 41.1125C1789.89 -107.575 1931.91 -240.825 2073.61 -323.375" stroke="#D4E8F7" stroke-miterlimit="10"/>
<path d="M-1316.3 1449.99C-1273.73 1331.85 -1152.18 1257.75 -1029 1239.71C-975.863 1231.91 -921.588 1232.73 -867.638 1239.55C-797.6 1248.33 -728.538 1266.2 -660.125 1280.34C-520.7 1308.94 -385.013 1319.82 -254.363 1273.35C-152.8 1237.44 -57.4125 1193.89 27.9 1133.27C91.6 1087.94 139.375 1027.81 174.8 956.637C190.4 925.112 203.725 891.637 216.238 857.025C241.1 787.637 262.55 715.325 293.912 651.462C329.825 578.662 380.688 516.912 457.713 486.85C479.813 478.237 501.912 471.9 524.825 468.975C621.35 456.787 718.037 502.775 820.737 541.612C866.4 558.837 912.875 573.625 957.075 584.512C1006.47 596.7 1054.41 603.687 1098.13 605.15C1182.95 607.912 1254.78 595.075 1301.25 557.537C1335.05 530.237 1348.54 493.025 1370.31 450.45C1414.84 363.025 1485.52 237.9 1571.32 112.937C1595.05 78.3249 1620.08 43.7125 1646.56 9.91247C1765.84 -142.513 1915.01 -274.463 2063.86 -349.863" stroke="#D4E8F7" stroke-miterlimit="10"/>
<path d="M-1323.61 1437.8C-1278.93 1320.31 -1157.7 1246.37 -1034.36 1227.85C-981.063 1219.89 -926.788 1220.7 -872.838 1227.69C-802.638 1236.95 -733.738 1255.64 -665.488 1271.4C-526.388 1303.25 -391.025 1319.82 -259.075 1276.44C-156.375 1242.8 -59.3625 1202.99 28.0625 1145.3C93.875 1101.91 142.787 1042.93 179.35 972.075C195.437 940.713 209.25 907.4 222.087 872.787C247.762 803.4 270.025 731.087 302.362 667.712C339.412 595.4 391.413 535.112 470.713 507.812C493.3 500.012 515.562 494.65 538.637 492.7C635.65 484.738 730.712 534.3 833.412 573.462C879.075 590.85 926.038 604.825 970.563 614.25C1020.45 624.812 1068.71 629.525 1112.42 627.9C1196.76 624.812 1267.12 603.363 1307.42 560.138C1338.14 527.313 1345.61 486.525 1362.51 440.375C1397.45 345.312 1462.29 213.687 1546.46 84.5C1569.7 48.5875 1594.56 13.1625 1621.38 -21.45C1741.79 -177.613 1897.79 -308.263 2053.95 -376.35" stroke="#D4E8F7" stroke-miterlimit="10"/>
<path d="M-1330.93 1425.78C-1283.96 1309.1 -1163.23 1235 -1039.73 1216.15C-986.425 1208.03 -931.825 1208.68 -877.875 1216.15C-807.675 1225.74 -738.775 1245.56 -670.688 1262.79C-531.75 1297.89 -396.712 1320.31 -263.625 1279.85C-159.95 1248.65 -61.3126 1212.25 28.3875 1157.65C96.15 1116.38 146.363 1058.36 184.063 988C200.638 956.962 214.937 923.65 228.262 889.037C254.75 819.812 277.825 747.5 311.3 684.45C349.487 612.788 402.625 553.963 484.362 529.263C507.275 522.275 529.862 517.887 553.1 516.912C650.437 513.012 744.2 566.475 846.737 605.638C892.562 623.188 939.85 636.35 984.862 644.475C1035.24 653.412 1083.99 655.688 1127.54 651.138C1211.55 642.2 1279.96 612.138 1314.57 563.388C1341.71 525.038 1343.5 480.675 1355.85 430.787C1381.2 328.087 1440.19 189.962 1522.74 56.7125C1545.49 19.6625 1570.35 -16.9 1597.16 -52.1625C1718.55 -211.9 1881.54 -341.575 2044.85 -402.188" stroke="#D4E8F7" stroke-miterlimit="10"/>
<path d="M-1338.24 1413.59C-1289 1297.56 -1168.75 1223.46 -1044.93 1204.13C-991.463 1195.84 -936.863 1196.33 -882.75 1204.13C-812.55 1214.04 -743.813 1234.84 -675.725 1253.69C-537.113 1291.87 -402.238 1320.31 -268.175 1282.94C-163.525 1254.01 -63.2625 1221.35 28.55 1169.68C98.425 1130.35 149.775 1073.47 188.613 1003.6C205.675 972.725 220.463 939.575 234.113 904.963C261.413 835.9 285.3 763.425 319.75 701.025C358.913 629.85 413.35 572.488 497.362 550.713C520.762 544.7 543.513 541.125 566.75 541.125C664.413 541.288 756.713 598.65 859.25 637.813C905.238 655.363 952.85 667.875 998.188 674.537C1049.05 682.012 1098.12 681.687 1141.67 674.05C1225.36 659.262 1291.66 620.425 1320.75 566.15C1344.31 522.113 1340.41 474.338 1348.05 420.875C1363.81 310.538 1416.95 165.75 1497.88 28.4375C1520.3 -9.74999 1545 -47.2875 1571.97 -83.3625C1694.34 -246.837 1864.47 -375.213 2034.94 -428.513" stroke="#D4E8F7" stroke-miterlimit="10"/>
<path d="M-1345.71 1401.4C-1294.2 1286.02 -1174.6 1211.92 -1050.45 1192.26C-996.988 1183.81 -942.063 1184.3 -887.95 1192.26C-817.588 1202.66 -749.013 1224.27 -681.088 1244.75C-542.8 1286.19 -408.25 1320.47 -272.888 1286.02C-167.263 1259.37 -65.375 1230.29 28.7125 1181.86C100.7 1144.65 153.187 1088.75 193.162 1019.2C210.712 988.487 225.825 955.5 240.125 920.888C268.238 851.825 292.937 779.35 328.362 717.437C368.662 646.912 424.238 590.85 510.525 571.837C534.25 566.637 557.325 564.2 580.725 565.175C678.875 569.4 769.713 630.5 872.25 669.825C918.238 687.538 966.338 699.237 1012 704.437C1063.35 710.287 1112.75 707.687 1156.3 696.962C1239.5 676.325 1303.52 628.875 1327.41 568.912C1347.07 519.35 1337.81 468 1340.9 410.8C1347.08 292.825 1394.2 141.537 1473.5 -2.67029e-05C1495.44 -39.4875 1520.14 -78 1547.28 -114.725C1670.78 -281.938 1847.74 -409.013 2025.35 -455.163" stroke="#D4E8F7" stroke-miterlimit="10"/>
<path d="M-1353.03 1389.21C-1299.24 1274.65 -1180.13 1200.39 -1055.81 1180.4C-1002.19 1171.79 -947.263 1172.11 -892.988 1180.56C-822.625 1191.29 -754.213 1214.04 -686.45 1235.97C-548.325 1280.66 -414.1 1320.8 -277.6 1289.28C-171 1264.9 -67.325 1239.55 28.875 1194.05C102.975 1158.95 156.6 1104.03 197.712 1034.96C215.75 1004.58 231.35 971.588 245.975 937.138C274.9 868.238 300.413 795.6 336.813 734.175C378.25 664.137 434.963 609.537 523.525 593.287C547.738 588.9 570.975 587.438 594.375 589.388C692.85 597.675 782.225 662.675 884.762 702C930.912 719.713 979.175 730.763 1025.49 734.5C1077.16 738.725 1127.05 733.688 1170.44 719.875C1253.31 693.55 1314.74 637.325 1333.42 571.675C1349.19 516.587 1334.73 461.663 1332.94 400.888C1329.53 275.438 1370.8 117.487 1448.47 -28.275C1470.09 -68.9 1494.46 -108.388 1521.92 -146.088C1646.4 -317.038 1830.51 -442.975 2015.28 -481.65" stroke="#D4E8F7" stroke-miterlimit="10"/>
<path d="M-1360.34 1377.03C-1304.28 1263.11 -1185.65 1189.01 -1061.18 1168.54C-1007.55 1159.76 -952.3 1160.09 -898.025 1168.7C-827.663 1179.91 -759.25 1203.47 -691.65 1227.04C-553.85 1274.81 -419.95 1320.8 -282.15 1292.53C-174.575 1270.59 -69.2751 1248.81 29.1999 1206.24C105.575 1173.25 160.337 1119.3 202.425 1050.56C220.95 1020.34 237.037 987.675 251.987 953.062C281.725 884.325 308.212 811.525 345.425 750.75C388 681.2 446.013 627.9 536.688 614.737C561.225 611.162 584.95 610.675 608.35 613.6C707.312 625.95 795.225 694.85 897.6 734.337C943.912 752.212 992.5 762.45 1039.14 764.887C1091.3 767.487 1141.68 760.175 1184.9 743.275C1267.45 711.1 1326.11 646.425 1339.92 574.925C1351.62 514.312 1331.96 455.812 1325.63 391.462C1312.46 258.375 1348.05 93.7624 1424.1 -56.0626C1445.22 -97.8251 1469.6 -138.45 1497.22 -176.8C1622.67 -351.488 1813.77 -476.125 2005.69 -507.488" stroke="#D4E8F7" stroke-miterlimit="10"/>
<path d="M-1367.65 1365C-1309.31 1251.74 -1191.18 1177.64 -1066.38 1156.84C-1012.59 1147.9 -957.338 1148.06 -902.9 1157C-832.375 1168.54 -764.125 1193.24 -696.688 1218.26C-559.213 1269.29 -425.475 1321.13 -286.538 1295.78C-177.825 1276.11 -71.0625 1258.08 29.6875 1218.43C108.175 1187.55 164.075 1134.41 207.3 1066.32C226.312 1036.42 242.887 1003.76 258.325 969.15C288.875 900.412 316.175 827.612 354.362 767.325C398.075 698.425 457.225 646.262 550.175 636.025C575.037 633.262 599.087 633.75 622.487 637.65C721.775 654.225 808.225 726.7 910.6 766.35C957.075 784.225 1005.99 793.812 1052.95 794.787C1105.6 795.925 1156.3 786.012 1199.53 766.025C1281.75 728 1337.65 655.037 1346.59 577.525C1354.06 511.712 1329.2 449.312 1318.31 381.225C1295.24 240.5 1325.3 69.3875 1399.72 -84.6625C1420.36 -127.563 1444.74 -169.163 1472.53 -208.325C1598.79 -386.75 1796.87 -510.25 1996.1 -534.3" stroke="#D4E8F7" stroke-miterlimit="10"/>
<path d="M-1374.96 1352.81C-1314.35 1240.2 -1196.7 1166.1 -1071.74 1144.81C-1017.95 1135.71 -962.538 1135.71 -907.938 1144.97C-837.413 1157 -769.325 1182.51 -701.888 1209.16C-564.575 1263.44 -431.325 1321.12 -291.088 1298.7C-181.4 1281.31 -72.8501 1267.17 30.0124 1230.29C110.612 1201.52 167.65 1149.36 212.012 1081.76C231.35 1052.02 248.413 1019.52 264.338 984.912C295.863 916.337 323.812 843.538 362.975 783.575C407.825 715.163 468.113 664.462 563.338 656.987C588.688 655.037 612.9 656.662 636.463 661.375C736.075 682.012 821.225 758.387 923.438 798.037C969.913 816.075 1019.31 824.85 1066.6 824.362C1119.74 823.875 1170.76 811.687 1213.99 788.612C1295.89 744.737 1349.02 663.488 1352.92 579.963C1356.17 508.788 1326.28 442.65 1310.84 370.987C1278.34 222.787 1302.23 45.0125 1375.19 -113.263C1395.5 -157.463 1419.55 -200.038 1447.66 -239.85C1574.9 -421.688 1779.97 -543.887 1986.35 -560.625" stroke="#D4E8F7" stroke-miterlimit="10"/>
<path d="M-1382.28 1340.62C-1319.39 1228.82 -1202.23 1154.56 -1077.1 1132.95C-1023.15 1123.69 -967.575 1123.69 -912.975 1133.27C-842.45 1145.62 -774.363 1172.11 -707.088 1200.39C-570.1 1257.75 -437.013 1321.45 -295.638 1301.95C-184.975 1286.84 -74.8 1276.44 30.3375 1242.64C113.05 1215.99 171.225 1164.8 216.725 1097.52C236.55 1068.11 254.1 1035.61 270.512 1001C302.85 932.588 331.612 859.625 371.912 800.313C417.9 732.55 479.325 682.825 576.825 678.6C602.5 677.462 627.037 680.062 650.6 685.912C750.7 710.612 834.225 790.887 936.438 830.537C983.075 848.737 1032.8 856.7 1080.57 854.75C1134.2 852.638 1185.71 838.175 1228.78 812.013C1310.35 762.45 1360.73 672.913 1359.75 583.213C1358.94 506.838 1324 436.8 1303.69 361.4C1261.6 205.563 1279.64 21.125 1350.81 -141.05C1370.64 -186.387 1394.69 -229.938 1422.96 -270.725C1551.5 -456.463 1763.56 -577.525 1977.09 -586.95" stroke="#D4E8F7" stroke-miterlimit="10"/>
<path d="M-1389.59 1328.44C-1324.59 1217.29 -1207.75 1143.19 -1082.46 1121.09C-1028.51 1111.66 -972.775 1111.5 -918.013 1121.41C-847.488 1134.09 -779.4 1161.71 -712.288 1191.45C-575.625 1252.06 -442.7 1321.61 -300.35 1305.2C-188.713 1292.36 -76.9125 1285.7 30.5 1254.82C115.325 1230.29 174.637 1180.07 221.112 1113.29C241.425 1084.04 259.462 1051.7 276.2 1017.09C309.35 948.675 338.925 875.713 380.2 816.888C427.325 749.613 490.05 701.188 589.662 699.888C615.825 699.563 640.525 703.138 664.25 709.963C764.675 738.725 846.9 822.737 948.95 862.55C995.75 880.75 1045.8 888.062 1093.9 884.812C1148.01 881.075 1200.01 864.337 1242.75 834.925C1324.16 779.675 1371.61 682.012 1365.76 585.975C1360.72 504.562 1320.75 430.462 1295.89 351.487C1244.21 188.012 1256.4 -2.92502 1325.95 -169.325C1345.29 -215.8 1369.34 -260.325 1397.61 -301.925C1527.12 -491.4 1746.34 -611.163 1967.01 -613.438" stroke="#D4E8F7" stroke-miterlimit="10"/>
<path d="M-1397.06 1316.41C-1329.79 1205.91 -1213.44 1131.81 -1087.82 1109.39C-1033.71 1099.8 -977.812 1099.47 -923.05 1109.71C-852.362 1122.87 -784.6 1151.31 -717.65 1182.67C-581.15 1246.54 -448.713 1321.77 -305.062 1308.45C-192.45 1298.05 -78.8625 1295.29 30.5 1267.01C117.438 1244.91 177.888 1195.35 225.5 1128.89C246.3 1099.8 264.662 1067.62 281.887 1033.01C315.85 964.762 346.237 891.637 388.487 833.3C436.75 766.512 500.612 719.388 602.5 721.013C628.987 721.5 654.012 726.05 677.737 733.85C778.487 766.675 859.25 854.587 961.3 894.562C1008.1 912.925 1058.48 919.425 1107.06 914.713C1161.66 909.513 1213.99 890.175 1256.72 857.838C1337.81 796.738 1382.5 691.112 1371.61 588.737C1362.35 502.125 1317.34 424.288 1287.76 341.575C1226.5 170.625 1232.84 -26.975 1300.76 -197.6C1319.77 -245.213 1343.5 -290.875 1372.1 -333.125C1502.59 -526.338 1728.79 -644.8 1956.61 -639.763" stroke="#D4E8F7" stroke-miterlimit="10"/>
<path d="M-1404.38 1304.22C-1304.76 1147.09 -1110.57 1062.91 -928.087 1097.85C-713.262 1138.96 -525.413 1326.97 -309.613 1311.54C-196.025 1303.41 -80.8126 1304.39 30.8249 1279.04C158.712 1250.11 230.05 1162.69 288.062 1048.94C362.65 902.85 420.825 733.525 615.825 742.3C756.875 748.637 848.362 877.175 974.3 926.575C1074.07 965.738 1190.75 947.7 1271.51 880.75C1352.27 813.8 1394.36 700.213 1378.44 591.5C1365.11 499.85 1315.06 417.95 1280.78 331.5C1190.1 103.025 1216.1 -167.538 1347.72 -364.488C1479.35 -561.438 1712.38 -678.763 1947.51 -666.25" stroke="#D4E8F7" stroke-miterlimit="10"/>
<path d="M-1392.84 1326.65C-1291.76 1181.86 -1098.71 1103.54 -917.525 1135.55C-826.85 1151.48 -740.888 1191.94 -656.063 1231.1C-569.125 1271.4 -483.488 1310.56 -394.113 1321.94C-365.35 1325.67 -336.1 1326.49 -306.525 1323.4C-195.213 1311.86 -82.925 1309.1 28.225 1282.94C154.162 1253.36 226.962 1169.51 286.925 1062.1C300.737 1037.4 314.063 1012.21 327.713 987.35C367.688 914.225 410.262 845 477.7 806.487C515.4 785.037 560.738 772.85 617.125 774.8C756.388 779.512 847.387 897 969.425 939.25C985.675 944.775 1002.25 948.837 1018.99 951.437C1102.35 964.112 1190.59 940.062 1254.94 883.512C1332.29 815.587 1372.26 703.137 1357.8 595.562C1345.61 504.4 1298.65 422.012 1267.13 335.562C1212.69 186.387 1206.51 20.1499 1245.67 -130.975C1266.8 -211.738 1300.76 -287.95 1347.24 -355.225C1431.9 -478.075 1556.54 -568.913 1696.45 -616.85C1776.89 -644.475 1862.36 -657.475 1948 -653.738" stroke="#D4E8F7" stroke-miterlimit="10"/>
<path d="M-1381.3 1349.24C-1278.76 1216.64 -1086.85 1144.32 -906.963 1173.57C-816.613 1188.2 -730.975 1224.92 -646.963 1259.7C-560.838 1295.45 -476.987 1329.41 -389.075 1337.21C-360.8 1339.81 -332.2 1339.49 -303.275 1335.59C-194.4 1320.8 -84.7125 1314.3 25.7875 1287C149.937 1256.77 223.875 1176.17 285.95 1075.26C300.25 1052.02 314.225 1028.46 328.2 1005.22C369.475 936.975 412.537 872.95 479.975 837.525C517.837 817.7 562.85 806.163 618.262 807.463C755.737 810.55 846.412 917.15 964.55 952.25C980.312 956.8 996.237 960.05 1012.49 961.838C1092.76 970.45 1177.1 943.963 1238.53 886.763C1312.3 817.863 1350.49 706.55 1337.16 599.95C1325.95 509.275 1282.4 426.563 1253.64 339.95C1203.91 190.775 1201.15 25.1875 1242.42 -124.15C1264.85 -204.263 1299.95 -279.5 1347.07 -345.638C1433.04 -466.375 1557.84 -555.263 1697.91 -603.038C1778.19 -630.5 1863.34 -643.825 1948.81 -640.9" stroke="#D4E8F7" stroke-miterlimit="10"/>
<path d="M-1369.93 1371.82C-1265.93 1251.57 -1075.15 1184.95 -896.4 1211.44C-806.538 1224.6 -721.225 1257.75 -638.025 1288.3C-552.713 1319.5 -470.488 1348.43 -384.363 1352.49C-356.575 1353.79 -328.788 1352.49 -300.35 1347.78C-193.75 1329.58 -86.9875 1319.17 22.8625 1291.06C145.063 1259.86 220.462 1183 284.325 1088.43C299.112 1066.65 313.575 1044.71 328.037 1023.1C370.612 959.887 414.325 900.9 481.6 868.562C519.625 850.2 564.475 839.475 618.912 840.125C754.6 841.425 844.788 937.463 959.025 965.088C974.138 968.825 989.737 970.937 1005.17 971.912C1082.36 976.625 1162.64 947.7 1221.14 889.525C1291.5 819.65 1327.74 709.475 1315.71 603.85C1305.64 513.5 1265.17 430.625 1239.17 343.85C1194.16 194.512 1194.32 29.9 1238.04 -117.65C1261.6 -197.275 1298 -271.375 1345.78 -336.375C1433.04 -455.163 1558 -541.938 1698.4 -589.713C1778.51 -617.013 1863.5 -630.5 1948.65 -628.388" stroke="#D4E8F7" stroke-miterlimit="10"/>
<path d="M-1358.39 1394.41C-1252.92 1286.51 -1063.29 1225.74 -885.837 1249.3C-796.3 1261 -711.475 1290.74 -629.087 1316.74C-544.75 1343.55 -463.988 1367.11 -379.488 1367.44C-352.35 1367.6 -325.05 1365.32 -297.262 1359.64C-193.1 1338.35 -88.9375 1323.89 20.2625 1294.96C140.512 1263.11 217.375 1189.66 283.188 1101.43C298.463 1081.11 313.413 1060.8 328.363 1040.97C372.238 982.637 416.6 928.85 483.713 899.437C521.9 882.7 566.588 872.95 620.05 872.625C753.95 871.975 843.813 957.287 953.988 977.762C968.613 980.525 983.563 981.825 998.513 981.987C1072.61 982.637 1148.99 951.275 1204.56 892.45C1271.35 821.6 1305.48 712.562 1294.91 608.075C1285.81 518.212 1248.76 434.85 1225.53 347.912C1185.23 198.575 1188.64 34.6125 1234.46 -110.988C1259.33 -190.125 1296.7 -263.088 1345.29 -327.113C1433.85 -443.788 1559.14 -528.613 1699.54 -576.225C1779.49 -603.363 1864.15 -617.175 1949.14 -615.875" stroke="#D4E8F7" stroke-miterlimit="10"/>
<path d="M-1346.85 1417C-1239.76 1321.29 -1051.59 1266.52 -875.275 1287.16C-786.225 1297.4 -701.562 1323.56 -619.987 1345.18C-536.462 1367.44 -457.487 1385.96 -374.45 1382.55C-347.8 1381.58 -321.15 1378.16 -294.175 1371.66C-192.287 1347.12 -91.0499 1328.76 17.5001 1298.86C135.8 1266.2 214.125 1196.16 281.888 1114.43C297.65 1095.41 313.25 1076.89 328.525 1058.69C373.538 1005.22 418.55 956.8 485.825 930.312C524.175 915.2 568.537 905.775 621.187 905.125C753.3 903.5 842.675 977.275 948.95 990.6C963.087 992.387 977.387 992.712 991.687 992.062C1062.7 988.65 1135.17 955.012 1187.82 895.375C1251.2 823.387 1283.37 715.65 1274.11 612.138C1266.15 522.763 1232.19 439.075 1211.87 351.975C1176.45 202.637 1182.95 39.4875 1230.89 -104.487C1257.05 -183.137 1295.56 -254.962 1344.8 -317.85C1434.5 -432.413 1560.11 -515.125 1700.84 -562.738C1780.79 -589.713 1864.96 -603.85 1949.62 -603.362" stroke="#D4E8F7" stroke-miterlimit="10"/>
<path d="M-1335.47 1439.43C-1226.92 1356.06 -1039.89 1306.99 -864.712 1325.03C-775.987 1333.8 -691.812 1356.39 -611.05 1373.78C-528.337 1391.65 -450.987 1404.81 -369.737 1397.82C-343.575 1395.55 -317.575 1391.32 -291.25 1383.85C-191.8 1355.9 -93.1624 1333.8 14.7376 1302.93C131.088 1269.61 210.875 1202.99 280.588 1127.59C296.838 1110.04 312.925 1093.14 328.687 1076.56C375 1028.14 420.663 984.75 487.775 961.35C526.45 947.862 570.487 939.087 622.162 937.787C752.487 934.537 841.537 997.425 943.75 1003.44C957.4 1004.25 971.05 1003.76 984.7 1002.3C1052.62 994.825 1121.2 958.912 1170.92 898.462C1230.72 825.5 1260.95 719.062 1252.99 616.362C1246 527.475 1215.29 443.3 1197.74 356.2C1167.02 206.862 1176.77 44.5249 1226.82 -97.6626C1254.29 -175.663 1293.94 -246.513 1343.99 -308.263C1434.99 -420.875 1560.76 -501.475 1701.65 -548.925C1781.44 -575.9 1865.45 -590.2 1949.79 -590.363" stroke="#D4E8F7" stroke-miterlimit="10"/>
<path d="M-1323.94 1462.01C-1213.93 1390.84 -1028.02 1347.77 -854.15 1362.89C-765.912 1370.2 -681.9 1389.21 -602.112 1402.21C-520.212 1415.54 -444.65 1423.5 -364.863 1412.94C-339.35 1409.53 -313.838 1404.16 -288.163 1396.04C-190.988 1364.84 -95.275 1338.84 11.975 1306.99C126.537 1273.03 207.625 1209.81 279.287 1140.91C296.025 1124.82 312.6 1109.39 328.85 1094.6C376.3 1051.05 422.775 1013.02 489.725 992.55C528.562 980.687 572.437 972.562 622.975 970.612C751.512 965.737 840.237 1017.74 938.387 1016.44C951.55 1016.27 964.713 1014.81 977.713 1012.54C1042.39 1001 1107.23 962.65 1154.03 901.55C1210.41 827.612 1238.69 722.312 1232.03 620.75C1226.18 532.35 1198.87 447.85 1183.92 360.588C1158.25 211.088 1171.09 49.5625 1223.09 -90.675C1251.85 -168.187 1292.48 -237.9 1343.34 -298.675C1435.64 -409.175 1561.74 -487.825 1702.79 -535.275C1782.41 -562.088 1866.1 -576.55 1950.28 -577.688" stroke="#D4E8F7" stroke-miterlimit="10"/>
<path d="M-1312.4 1484.6C-1200.93 1425.78 -1016.16 1388.89 -843.588 1400.75C-755.675 1406.76 -672.15 1422.2 -593.013 1430.65C-512.088 1439.43 -437.988 1442.19 -359.825 1428.05C-334.8 1423.5 -309.938 1417.16 -284.913 1408.06C-190.013 1373.61 -97.0625 1343.88 9.53748 1311.05C122.15 1276.44 204.863 1216.64 278.15 1154.08C295.375 1139.45 312.437 1125.64 329.175 1112.48C377.762 1073.96 425.05 1040.98 491.838 1023.43C530.838 1013.19 574.387 1005.55 624.112 1003.11C750.862 996.613 839.262 1037.73 933.35 1029.28C945.862 1028.14 958.537 1025.86 970.887 1022.78C1032.47 1007.18 1093.25 966.55 1137.29 904.475C1190.1 829.562 1216.59 725.4 1211.06 624.813C1206.19 536.738 1182.14 452.075 1169.95 364.65C1148.99 215.15 1165.07 54.4375 1219.35 -84.175C1249.41 -161.2 1291.18 -229.775 1342.69 -289.413C1436.29 -397.963 1562.55 -474.5 1703.76 -521.788C1783.22 -548.438 1866.59 -563.225 1950.6 -565.175" stroke="#D4E8F7" stroke-miterlimit="10"/>
<path d="M-1301.03 1507.19C-1188.09 1460.55 -1004.63 1429.68 -833.025 1438.61C-745.6 1443.16 -662.238 1455.03 -584.075 1459.09C-503.963 1463.48 -431.65 1461.04 -355.113 1443.16C-330.575 1437.47 -306.363 1430 -281.988 1420.09C-189.525 1382.23 -99.3375 1348.75 6.77496 1314.95C117.437 1279.69 201.612 1223.14 276.85 1167.07C294.562 1153.91 312.275 1141.72 329.338 1130.19C379.063 1096.55 427.162 1068.93 493.95 1054.3C533.112 1045.69 576.5 1038.7 625.25 1035.61C750.213 1027.49 838.287 1057.55 928.475 1041.95C940.5 1039.84 952.525 1036.59 964.387 1032.69C1022.89 1013.02 1079.76 969.962 1120.88 907.237C1170.28 831.35 1194.65 728.325 1190.59 628.875C1186.85 541.287 1166.05 456.137 1156.63 368.55C1140.38 219.05 1159.87 59.15 1216.1 -77.675C1247.46 -154.05 1290.36 -221.65 1342.53 -280.15C1437.26 -386.587 1563.85 -461.175 1705.39 -508.3C1784.69 -534.788 1867.89 -549.9 1951.58 -552.5" stroke="#D4E8F7" stroke-miterlimit="10"/>
<path d="M-1289.49 1529.78C-1175.09 1495.49 -992.763 1470.3 -822.463 1476.47C-735.363 1479.56 -652.488 1487.85 -575.138 1487.69C-495.838 1487.53 -425.15 1480.05 -350.238 1458.28C-326.35 1451.29 -302.625 1442.84 -278.9 1432.11C-188.713 1391 -101.288 1353.79 4.01245 1318.85C112.887 1282.94 198.525 1229.8 275.55 1180.07C293.75 1168.37 311.95 1157.81 329.5 1147.9C380.363 1119.14 429.275 1096.88 495.9 1085.18C535.388 1078.19 578.287 1071.85 626.225 1068.11C749.4 1058.36 837.15 1077.54 923.275 1054.63C934.813 1051.54 946.188 1047.47 957.4 1042.76C1012.81 1019.04 1065.79 973.7 1103.97 910.162C1149.8 833.3 1172.39 731.413 1169.46 632.938C1166.86 545.838 1149.15 460.362 1142.49 372.612C1131.11 223.112 1153.7 63.8624 1212.04 -71.0126C1244.86 -146.9 1288.57 -213.363 1341.55 -270.888C1437.59 -375.212 1564.34 -447.85 1706.04 -494.975C1785.17 -521.3 1868.05 -536.575 1951.41 -540.15" stroke="#D4E8F7" stroke-miterlimit="10"/>
<path d="M-1277.95 1552.2C-1162.09 1530.26 -980.9 1510.92 -811.9 1514.34C-725.287 1516.12 -642.737 1520.67 -566.037 1516.12C-487.712 1511.57 -418.65 1498.74 -345.2 1473.39C-321.8 1465.26 -298.725 1455.84 -275.812 1444.14C-188.062 1399.61 -103.237 1358.66 1.41253 1322.91C108.338 1286.35 195.6 1236.62 274.413 1193.24C293.1 1183 311.787 1174.06 329.825 1165.77C381.825 1142.05 431.55 1124.99 498.013 1116.05C537.663 1110.69 580.4 1105 627.2 1100.61C748.588 1089.08 836.013 1097.36 918.075 1067.46C929.125 1063.4 940.013 1058.36 950.413 1052.84C1002.74 1025.05 1051.81 977.438 1086.91 913.088C1129.33 835.25 1149.96 734.5 1148.34 637C1146.88 550.388 1132.41 464.587 1128.51 376.675C1121.85 227.175 1147.85 68.7375 1208.14 -64.5125C1242.26 -139.75 1287.11 -205.238 1340.74 -261.625C1438.08 -364 1565.15 -434.525 1707.01 -481.488C1785.99 -507.65 1868.7 -523.25 1951.74 -527.638" stroke="#D4E8F7" stroke-miterlimit="10"/>
<path d="M-1266.57 1574.79C-1149.09 1565.04 -969.2 1551.71 -801.337 1552.2C-715.05 1552.52 -632.825 1553.66 -557.1 1544.56C-479.587 1535.46 -412.15 1517.59 -340.488 1488.5C-317.575 1479.24 -295.15 1468.67 -272.887 1456.16C-187.412 1408.39 -105.512 1363.7 -1.51245 1326.81C103.625 1289.6 192.35 1243.45 272.95 1206.24C292.125 1197.46 311.3 1190.15 329.825 1183.49C382.962 1164.64 433.5 1152.94 499.8 1146.93C539.613 1143.35 582.188 1137.99 628.013 1132.95C747.613 1119.79 834.713 1117.02 912.713 1079.97C923.275 1074.94 933.513 1069.09 943.425 1062.75C992.663 1030.9 1037.68 980.85 1070.01 915.688C1108.85 836.875 1127.7 737.263 1127.21 640.9C1126.89 554.613 1115.51 468.488 1114.38 380.575C1112.43 231.075 1141.84 73.4499 1204.08 -58.0126C1239.5 -132.763 1285.49 -197.113 1339.93 -252.363C1438.56 -352.625 1565.8 -421.038 1707.83 -468C1786.64 -494.163 1869.03 -509.925 1951.9 -514.963" stroke="#D4E8F7" stroke-miterlimit="10"/>
<path d="M-1255.04 1597.38C-1136.09 1599.98 -957.337 1592.34 -790.775 1590.06C-704.975 1588.93 -623.075 1586.49 -548.162 1573.16C-471.462 1559.51 -405.65 1536.44 -335.612 1503.78C-313.35 1493.38 -291.412 1481.67 -269.8 1468.35C-186.762 1417.16 -107.462 1368.9 -4.1125 1330.88C99.075 1293.01 189.588 1250.28 271.65 1219.56C291.475 1212.25 310.975 1206.56 329.987 1201.69C384.262 1187.71 435.775 1181.54 501.912 1178.29C542.05 1176.34 584.138 1171.63 629.15 1165.94C747.125 1151.15 833.737 1137.34 907.675 1093.14C917.75 1087.12 927.337 1080.3 936.6 1073.15C982.75 1037.24 1023.86 984.913 1053.28 918.938C1088.7 839.15 1105.6 740.675 1106.41 645.287C1107.06 559.487 1099.1 473.038 1100.72 384.963C1103.49 235.3 1136.15 78.65 1200.5 -51.025C1237.22 -125.288 1284.19 -188.5 1339.44 -242.613C1439.21 -340.763 1566.77 -407.225 1709.12 -454.025C1787.94 -480.025 1869.84 -496.113 1952.55 -501.963" stroke="#D4E8F7" stroke-miterlimit="10"/>
<path d="M-1243.5 1619.96C-1123.09 1634.75 -945.475 1633.12 -780.212 1627.92C-694.737 1625.32 -613.162 1619.31 -539.062 1601.6C-463.175 1583.56 -399.15 1555.29 -330.575 1518.89C-308.8 1507.35 -287.513 1494.51 -266.55 1480.37C-185.788 1425.77 -109.413 1373.77 -6.71254 1334.94C94.6875 1296.42 186.662 1257.26 270.512 1232.72C290.825 1226.87 310.812 1222.81 330.312 1219.56C385.725 1210.3 438.05 1207.86 504.025 1209.16C544.325 1209.97 586.25 1204.77 630.287 1198.44C746.475 1181.86 832.762 1157.16 902.637 1105.81C912.225 1098.82 921.162 1091.19 929.938 1083.22C973 1043.25 1010.21 988.487 1036.7 921.862C1068.55 841.1 1083.66 743.762 1085.61 649.35C1087.4 564.037 1082.52 477.262 1086.91 388.862C1094.39 239.2 1130.46 83.3624 1196.92 -44.6876C1235.11 -118.3 1283.05 -180.538 1338.95 -233.675C1440.02 -329.875 1567.91 -394.225 1710.26 -441.025C1788.91 -466.863 1870.65 -483.113 1953.04 -489.775" stroke="#D4E8F7" stroke-miterlimit="10"/>
<path d="M-1232.12 1642.39C-1110.25 1669.52 -933.937 1673.26 -769.65 1665.62C-684.662 1661.4 -603.412 1652.14 -530.125 1629.87C-455.212 1607.29 -392.65 1573.97 -325.863 1533.67C-304.575 1520.84 -283.938 1507.19 -263.625 1492.07C-185.3 1434.22 -111.525 1378.49 -9.47506 1338.51C89.9749 1299.51 183.575 1263.6 269.213 1245.4C290.013 1241.01 310.487 1238.41 330.475 1236.95C386.862 1232.56 440.162 1237.44 505.975 1239.71C546.6 1241.17 588.037 1237.6 631.1 1230.61C745.5 1212.41 831.463 1176.66 897.438 1118.32C906.375 1110.36 914.987 1101.75 922.95 1092.97C962.925 1048.94 996.237 991.9 1019.8 924.463C1048.24 842.725 1061.24 746.525 1064.49 653.25C1067.41 568.425 1065.46 481.163 1072.94 392.763C1084.8 243.1 1124.61 88.075 1193.03 -38.1875C1232.51 -111.312 1281.59 -172.413 1338.14 -224.413C1440.51 -318.5 1568.56 -380.9 1711.24 -427.538C1789.72 -453.213 1871.14 -469.788 1953.2 -477.263" stroke="#D4E8F7" stroke-miterlimit="10"/>
<path d="M-1220.59 1664.97C-1097.25 1704.46 -922.075 1714.05 -759.088 1703.65C-674.425 1697.96 -593.662 1685.12 -521.187 1658.64C-447.087 1631.66 -386.313 1592.99 -320.988 1549.11C-300.35 1535.14 -280.363 1520.35 -260.538 1504.42C-184.488 1443.16 -113.475 1383.85 -12.075 1342.74C85.5875 1303.09 180.65 1270.91 268.075 1258.72C289.362 1255.8 310.325 1255.15 330.8 1254.99C388.325 1254.34 442.438 1265.71 508.088 1270.91C548.875 1274 590.15 1270.91 632.237 1263.44C744.85 1243.45 830.325 1196.65 892.4 1131.32C900.85 1122.39 908.813 1112.96 916.125 1103.37C953.013 1055.27 982.425 995.8 1003.06 927.712C1027.93 845 1039.14 749.937 1043.69 657.637C1047.75 573.137 1049.05 485.712 1059.13 397.15C1075.86 247.487 1118.92 93.2749 1189.29 -31.3626C1230.24 -103.838 1280.12 -163.963 1337.49 -214.825C1441 -306.8 1569.38 -367.25 1712.21 -413.725C1790.54 -439.238 1871.63 -456.138 1953.53 -464.425" stroke="#D4E8F7" stroke-miterlimit="10"/>
<path d="M-1209.05 1687.56C-1084.25 1739.24 -910.213 1754.84 -748.525 1741.51C-664.35 1734.36 -583.75 1717.95 -512.088 1687.08C-438.8 1655.55 -379.487 1612 -315.95 1564.23C-295.8 1549.11 -276.462 1533.19 -257.45 1516.45C-183.837 1451.78 -115.425 1388.89 -14.8375 1346.64C80.875 1306.5 177.563 1277.74 266.775 1271.73C288.55 1270.26 310 1270.91 330.963 1272.7C389.625 1277.9 444.55 1293.83 510.037 1301.63C550.987 1306.5 592.1 1303.9 633.213 1295.78C744.038 1274 829.025 1216.31 887.2 1143.84C895.162 1133.93 902.475 1123.53 909.3 1113.13C942.937 1060.96 968.45 999.213 986.325 930.15C1007.77 846.3 1017.04 752.538 1022.72 661.213C1027.92 577.2 1032.31 489.45 1045.31 400.725C1066.76 251.062 1113.24 97.6625 1185.55 -25.1875C1227.8 -97.0125 1278.83 -156.325 1336.84 -206.05C1441.65 -296.075 1570.19 -354.413 1713.35 -400.725C1791.51 -426.075 1872.44 -443.138 1954.01 -452.238" stroke="#D4E8F7" stroke-miterlimit="10"/>
<path d="M-1197.68 1710.15C-1071.41 1774.17 -898.513 1795.46 -737.963 1779.37C-654.113 1770.76 -574 1750.77 -503.15 1715.51C-430.838 1679.6 -373.15 1630.69 -311.075 1579.34C-291.412 1563.09 -272.725 1546.02 -254.363 1528.47C-183.35 1460.22 -117.375 1394.09 -17.4375 1350.7C76.4875 1309.91 174.637 1283.59 265.475 1285.05C287.9 1285.37 309.837 1287.16 331.287 1290.74C391.087 1300.65 446.825 1322.26 512.313 1332.82C553.425 1339.49 594.212 1337.21 634.512 1328.6C743.55 1305.2 828.212 1236.46 882.325 1157C889.8 1146.11 896.462 1134.9 902.637 1123.69C933.187 1067.46 954.8 1003.44 969.75 933.563C987.625 848.738 995.263 756.112 1002.09 665.925C1008.43 582.4 1016.06 494.163 1031.82 405.438C1057.99 255.613 1108.04 103.188 1182.14 -17.875C1225.85 -89.2125 1277.85 -147.388 1336.51 -195.975C1442.62 -283.888 1571.49 -340.275 1714.65 -386.588C1792.65 -411.775 1873.25 -429.163 1954.66 -439.075" stroke="#D4E8F7" stroke-miterlimit="10"/>
<path d="M-1186.14 1732.74C-1058.25 1808.95 -886.65 1836.25 -727.4 1817.24C-644.037 1807.16 -564.088 1783.76 -494.05 1744.11C-422.55 1703.65 -366.487 1649.7 -306.2 1594.61C-287.025 1577.22 -268.987 1559.19 -251.275 1540.66C-182.537 1469.16 -119.325 1399.29 -20.2 1354.76C71.9376 1313.49 171.55 1291.87 264.175 1298.21C287.087 1299.84 309.512 1303.41 331.45 1308.61C392.55 1323.24 448.775 1350.54 514.263 1363.86C555.538 1372.31 596.163 1370.52 635.325 1361.26C742.575 1336.07 826.75 1256.45 876.963 1169.84C883.95 1157.97 890.125 1145.79 895.65 1133.76C923.113 1073.47 940.825 1007.01 952.688 936.487C967.15 850.687 972.838 759.2 980.8 669.987C988.438 586.95 999 498.387 1017.53 409.337C1048.4 259.512 1102.03 108.062 1177.91 -11.5376C1223.09 -82.2251 1275.9 -139.425 1335.54 -186.875C1442.95 -272.838 1571.98 -326.95 1715.46 -373.263C1793.3 -398.45 1873.74 -416 1954.66 -426.725" stroke="#D4E8F7" stroke-miterlimit="10"/>
<path d="M-1174.6 1755.16C-1045.25 1843.72 -874.95 1876.87 -716.837 1855.1C-633.8 1843.56 -554.337 1816.59 -485.112 1772.55C-414.425 1727.54 -359.987 1668.55 -301.325 1609.56C-282.8 1591.04 -265.25 1571.86 -248.187 1552.69C-181.887 1477.78 -121.275 1404.49 -22.8 1358.66C67.55 1316.9 168.463 1298.86 263.038 1311.21C286.438 1314.3 309.35 1319.34 331.775 1326.32C394.013 1345.66 451.05 1378.65 516.375 1394.74C557.975 1404.98 598.113 1403.51 636.463 1393.76C741.763 1366.62 825.45 1276.11 871.925 1182.51C878.262 1169.67 883.95 1156.67 888.825 1143.84C913.2 1079.49 927.012 1010.75 935.95 939.412C946.837 852.637 950.737 762.287 960 674.05C968.775 591.5 982.587 502.612 1003.87 413.4C1039.46 263.575 1096.5 112.937 1174.5 -4.87504C1221.14 -74.9125 1274.93 -131.138 1335.21 -177.613C1443.76 -261.463 1573.11 -313.625 1716.76 -359.775C1794.6 -384.8 1874.55 -402.675 1955.31 -414.05" stroke="#D4E8F7" stroke-miterlimit="10"/>
<path d="M-1163.06 1777.75C-963.35 1931.64 -674.262 1941.39 -476.012 1800.99C-406.3 1751.59 -353.487 1687.24 -296.287 1624.68C-208.05 1527.99 -148.25 1421.39 -25.4 1362.56C84.9375 1309.75 217.05 1300.16 331.938 1344.2C395.312 1368.41 453.162 1406.93 518.325 1425.61C691.55 1475.18 835.688 1302.6 882 1153.91C929.125 1002.46 920.025 837.038 939.2 678.113C965.687 457.925 1043.04 186.875 1170.76 1.78748C1304.99 -192.888 1494.3 -274.625 1717.74 -346.288C1795.41 -371.15 1875.04 -389.188 1955.64 -401.538" stroke="#D4E8F7" stroke-miterlimit="10"/>
</g>
</g>
<mask id="mask1_858_1495" style="mask-type:luminance" maskUnits="userSpaceOnUse" x="15" y="-308" width="1950" height="1300">
<path d="M1965 -308H15V992H1965V-308Z" fill="white"/>
</mask>
<g mask="url(#mask1_858_1495)">
<path d="M1201.25 787.25C1203.04 787.25 1204.5 785.795 1204.5 784C1204.5 782.205 1203.04 780.75 1201.25 780.75C1199.46 780.75 1198 782.205 1198 784C1198 785.795 1199.46 787.25 1201.25 787.25Z" fill="#2B3640"/>
<path d="M1201.25 749.875C1203.04 749.875 1204.5 748.42 1204.5 746.625C1204.5 744.83 1203.04 743.375 1201.25 743.375C1199.46 743.375 1198 744.83 1198 746.625C1198 748.42 1199.46 749.875 1201.25 749.875Z" fill="#2B3640"/>
<path d="M1201.25 712.5C1203.04 712.5 1204.5 711.045 1204.5 709.25C1204.5 707.455 1203.04 706 1201.25 706C1199.46 706 1198 707.455 1198 709.25C1198 711.045 1199.46 712.5 1201.25 712.5Z" fill="#2B3640"/>
<path d="M1201.25 675.125C1203.04 675.125 1204.5 673.67 1204.5 671.875C1204.5 670.08 1203.04 668.625 1201.25 668.625C1199.46 668.625 1198 670.08 1198 671.875C1198 673.67 1199.46 675.125 1201.25 675.125Z" fill="#2B3640"/>
<path d="M1201.25 637.75C1203.04 637.75 1204.5 636.295 1204.5 634.5C1204.5 632.705 1203.04 631.25 1201.25 631.25C1199.46 631.25 1198 632.705 1198 634.5C1198 636.295 1199.46 637.75 1201.25 637.75Z" fill="#2B3640"/>
<path d="M1241.88 787.25C1243.67 787.25 1245.12 785.795 1245.12 784C1245.12 782.205 1243.67 780.75 1241.88 780.75C1240.08 780.75 1238.62 782.205 1238.62 784C1238.62 785.795 1240.08 787.25 1241.88 787.25Z" fill="#2B3640"/>
<path d="M1241.88 749.875C1243.67 749.875 1245.12 748.42 1245.12 746.625C1245.12 744.83 1243.67 743.375 1241.88 743.375C1240.08 743.375 1238.62 744.83 1238.62 746.625C1238.62 748.42 1240.08 749.875 1241.88 749.875Z" fill="#2B3640"/>
<path d="M1241.88 712.5C1243.67 712.5 1245.12 711.045 1245.12 709.25C1245.12 707.455 1243.67 706 1241.88 706C1240.08 706 1238.62 707.455 1238.62 709.25C1238.62 711.045 1240.08 712.5 1241.88 712.5Z" fill="#2B3640"/>
<path d="M1241.88 675.125C1243.67 675.125 1245.12 673.67 1245.12 671.875C1245.12 670.08 1243.67 668.625 1241.88 668.625C1240.08 668.625 1238.62 670.08 1238.62 671.875C1238.62 673.67 1240.08 675.125 1241.88 675.125Z" fill="#2B3640"/>
<path d="M1241.88 637.75C1243.67 637.75 1245.12 636.295 1245.12 634.5C1245.12 632.705 1243.67 631.25 1241.88 631.25C1240.08 631.25 1238.62 632.705 1238.62 634.5C1238.62 636.295 1240.08 637.75 1241.88 637.75Z" fill="#2B3640"/>
<path d="M1282.5 787.25C1284.29 787.25 1285.75 785.795 1285.75 784C1285.75 782.205 1284.29 780.75 1282.5 780.75C1280.71 780.75 1279.25 782.205 1279.25 784C1279.25 785.795 1280.71 787.25 1282.5 787.25Z" fill="#2B3640"/>
<path d="M1282.5 749.875C1284.29 749.875 1285.75 748.42 1285.75 746.625C1285.75 744.83 1284.29 743.375 1282.5 743.375C1280.71 743.375 1279.25 744.83 1279.25 746.625C1279.25 748.42 1280.71 749.875 1282.5 749.875Z" fill="#2B3640"/>
<path d="M1282.5 712.5C1284.29 712.5 1285.75 711.045 1285.75 709.25C1285.75 707.455 1284.29 706 1282.5 706C1280.71 706 1279.25 707.455 1279.25 709.25C1279.25 711.045 1280.71 712.5 1282.5 712.5Z" fill="#2B3640"/>
<path d="M1282.5 675.125C1284.29 675.125 1285.75 673.67 1285.75 671.875C1285.75 670.08 1284.29 668.625 1282.5 668.625C1280.71 668.625 1279.25 670.08 1279.25 671.875C1279.25 673.67 1280.71 675.125 1282.5 675.125Z" fill="#2B3640"/>
<path d="M1282.5 637.75C1284.29 637.75 1285.75 636.295 1285.75 634.5C1285.75 632.705 1284.29 631.25 1282.5 631.25C1280.71 631.25 1279.25 632.705 1279.25 634.5C1279.25 636.295 1280.71 637.75 1282.5 637.75Z" fill="#2B3640"/>
<path d="M1323.12 787.25C1324.92 787.25 1326.38 785.795 1326.38 784C1326.38 782.205 1324.92 780.75 1323.12 780.75C1321.33 780.75 1319.88 782.205 1319.88 784C1319.88 785.795 1321.33 787.25 1323.12 787.25Z" fill="#2B3640"/>
<path d="M1323.12 749.875C1324.92 749.875 1326.38 748.42 1326.38 746.625C1326.38 744.83 1324.92 743.375 1323.12 743.375C1321.33 743.375 1319.88 744.83 1319.88 746.625C1319.88 748.42 1321.33 749.875 1323.12 749.875Z" fill="#2B3640"/>
<path d="M1323.12 712.5C1324.92 712.5 1326.38 711.045 1326.38 709.25C1326.38 707.455 1324.92 706 1323.12 706C1321.33 706 1319.88 707.455 1319.88 709.25C1319.88 711.045 1321.33 712.5 1323.12 712.5Z" fill="#2B3640"/>
<path d="M1323.12 675.125C1324.92 675.125 1326.38 673.67 1326.38 671.875C1326.38 670.08 1324.92 668.625 1323.12 668.625C1321.33 668.625 1319.88 670.08 1319.88 671.875C1319.88 673.67 1321.33 675.125 1323.12 675.125Z" fill="#2B3640"/>
<path d="M1323.12 637.75C1324.92 637.75 1326.38 636.295 1326.38 634.5C1326.38 632.705 1324.92 631.25 1323.12 631.25C1321.33 631.25 1319.88 632.705 1319.88 634.5C1319.88 636.295 1321.33 637.75 1323.12 637.75Z" fill="#2B3640"/>
<path d="M1363.75 787.25C1365.54 787.25 1367 785.795 1367 784C1367 782.205 1365.54 780.75 1363.75 780.75C1361.96 780.75 1360.5 782.205 1360.5 784C1360.5 785.795 1361.96 787.25 1363.75 787.25Z" fill="#2B3640"/>
<path d="M1363.75 749.875C1365.54 749.875 1367 748.42 1367 746.625C1367 744.83 1365.54 743.375 1363.75 743.375C1361.96 743.375 1360.5 744.83 1360.5 746.625C1360.5 748.42 1361.96 749.875 1363.75 749.875Z" fill="#2B3640"/>
<path d="M1363.75 712.5C1365.54 712.5 1367 711.045 1367 709.25C1367 707.455 1365.54 706 1363.75 706C1361.96 706 1360.5 707.455 1360.5 709.25C1360.5 711.045 1361.96 712.5 1363.75 712.5Z" fill="#2B3640"/>
<path d="M1363.75 675.125C1365.54 675.125 1367 673.67 1367 671.875C1367 670.08 1365.54 668.625 1363.75 668.625C1361.96 668.625 1360.5 670.08 1360.5 671.875C1360.5 673.67 1361.96 675.125 1363.75 675.125Z" fill="#2B3640"/>
<path d="M1363.75 637.75C1365.54 637.75 1367 636.295 1367 634.5C1367 632.705 1365.54 631.25 1363.75 631.25C1361.96 631.25 1360.5 632.705 1360.5 634.5C1360.5 636.295 1361.96 637.75 1363.75 637.75Z" fill="#2B3640"/>
<path d="M1404.38 787.25C1406.17 787.25 1407.62 785.795 1407.62 784C1407.62 782.205 1406.17 780.75 1404.38 780.75C1402.58 780.75 1401.12 782.205 1401.12 784C1401.12 785.795 1402.58 787.25 1404.38 787.25Z" fill="#2B3640"/>
<path d="M1404.38 749.875C1406.17 749.875 1407.62 748.42 1407.62 746.625C1407.62 744.83 1406.17 743.375 1404.38 743.375C1402.58 743.375 1401.12 744.83 1401.12 746.625C1401.12 748.42 1402.58 749.875 1404.38 749.875Z" fill="#2B3640"/>
<path d="M1404.38 712.5C1406.17 712.5 1407.62 711.045 1407.62 709.25C1407.62 707.455 1406.17 706 1404.38 706C1402.58 706 1401.12 707.455 1401.12 709.25C1401.12 711.045 1402.58 712.5 1404.38 712.5Z" fill="#2B3640"/>
<path d="M1404.38 675.125C1406.17 675.125 1407.62 673.67 1407.62 671.875C1407.62 670.08 1406.17 668.625 1404.38 668.625C1402.58 668.625 1401.12 670.08 1401.12 671.875C1401.12 673.67 1402.58 675.125 1404.38 675.125Z" fill="#2B3640"/>
<path d="M1404.38 637.75C1406.17 637.75 1407.62 636.295 1407.62 634.5C1407.62 632.705 1406.17 631.25 1404.38 631.25C1402.58 631.25 1401.12 632.705 1401.12 634.5C1401.12 636.295 1402.58 637.75 1404.38 637.75Z" fill="#2B3640"/>
<path d="M1445 787.25C1446.79 787.25 1448.25 785.795 1448.25 784C1448.25 782.205 1446.79 780.75 1445 780.75C1443.21 780.75 1441.75 782.205 1441.75 784C1441.75 785.795 1443.21 787.25 1445 787.25Z" fill="#2B3640"/>
<path d="M1445 749.875C1446.79 749.875 1448.25 748.42 1448.25 746.625C1448.25 744.83 1446.79 743.375 1445 743.375C1443.21 743.375 1441.75 744.83 1441.75 746.625C1441.75 748.42 1443.21 749.875 1445 749.875Z" fill="#2B3640"/>
<path d="M1445 712.5C1446.79 712.5 1448.25 711.045 1448.25 709.25C1448.25 707.455 1446.79 706 1445 706C1443.21 706 1441.75 707.455 1441.75 709.25C1441.75 711.045 1443.21 712.5 1445 712.5Z" fill="#2B3640"/>
<path d="M1445 675.125C1446.79 675.125 1448.25 673.67 1448.25 671.875C1448.25 670.08 1446.79 668.625 1445 668.625C1443.21 668.625 1441.75 670.08 1441.75 671.875C1441.75 673.67 1443.21 675.125 1445 675.125Z" fill="#2B3640"/>
<path d="M1445 637.75C1446.79 637.75 1448.25 636.295 1448.25 634.5C1448.25 632.705 1446.79 631.25 1445 631.25C1443.21 631.25 1441.75 632.705 1441.75 634.5C1441.75 636.295 1443.21 637.75 1445 637.75Z" fill="#2B3640"/>
<path d="M1485.62 787.25C1487.42 787.25 1488.88 785.795 1488.88 784C1488.88 782.205 1487.42 780.75 1485.62 780.75C1483.83 780.75 1482.38 782.205 1482.38 784C1482.38 785.795 1483.83 787.25 1485.62 787.25Z" fill="#2B3640"/>
<path d="M1485.62 749.875C1487.42 749.875 1488.88 748.42 1488.88 746.625C1488.88 744.83 1487.42 743.375 1485.62 743.375C1483.83 743.375 1482.38 744.83 1482.38 746.625C1482.38 748.42 1483.83 749.875 1485.62 749.875Z" fill="#2B3640"/>
<path d="M1485.62 712.5C1487.42 712.5 1488.88 711.045 1488.88 709.25C1488.88 707.455 1487.42 706 1485.62 706C1483.83 706 1482.38 707.455 1482.38 709.25C1482.38 711.045 1483.83 712.5 1485.62 712.5Z" fill="#2B3640"/>
<path d="M1485.62 675.125C1487.42 675.125 1488.88 673.67 1488.88 671.875C1488.88 670.08 1487.42 668.625 1485.62 668.625C1483.83 668.625 1482.38 670.08 1482.38 671.875C1482.38 673.67 1483.83 675.125 1485.62 675.125Z" fill="#2B3640"/>
<path d="M1485.62 637.75C1487.42 637.75 1488.88 636.295 1488.88 634.5C1488.88 632.705 1487.42 631.25 1485.62 631.25C1483.83 631.25 1482.38 632.705 1482.38 634.5C1482.38 636.295 1483.83 637.75 1485.62 637.75Z" fill="#2B3640"/>
<path d="M1526.25 787.25C1528.04 787.25 1529.5 785.795 1529.5 784C1529.5 782.205 1528.04 780.75 1526.25 780.75C1524.46 780.75 1523 782.205 1523 784C1523 785.795 1524.46 787.25 1526.25 787.25Z" fill="#2B3640"/>
<path d="M1526.25 749.875C1528.04 749.875 1529.5 748.42 1529.5 746.625C1529.5 744.83 1528.04 743.375 1526.25 743.375C1524.46 743.375 1523 744.83 1523 746.625C1523 748.42 1524.46 749.875 1526.25 749.875Z" fill="#2B3640"/>
<path d="M1526.25 712.5C1528.04 712.5 1529.5 711.045 1529.5 709.25C1529.5 707.455 1528.04 706 1526.25 706C1524.46 706 1523 707.455 1523 709.25C1523 711.045 1524.46 712.5 1526.25 712.5Z" fill="#2B3640"/>
<path d="M1526.25 675.125C1528.04 675.125 1529.5 673.67 1529.5 671.875C1529.5 670.08 1528.04 668.625 1526.25 668.625C1524.46 668.625 1523 670.08 1523 671.875C1523 673.67 1524.46 675.125 1526.25 675.125Z" fill="#2B3640"/>
<path d="M1526.25 637.75C1528.04 637.75 1529.5 636.295 1529.5 634.5C1529.5 632.705 1528.04 631.25 1526.25 631.25C1524.46 631.25 1523 632.705 1523 634.5C1523 636.295 1524.46 637.75 1526.25 637.75Z" fill="#2B3640"/>
<path d="M1566.88 787.25C1568.67 787.25 1570.12 785.795 1570.12 784C1570.12 782.205 1568.67 780.75 1566.88 780.75C1565.08 780.75 1563.62 782.205 1563.62 784C1563.62 785.795 1565.08 787.25 1566.88 787.25Z" fill="#2B3640"/>
<path d="M1566.88 749.875C1568.67 749.875 1570.12 748.42 1570.12 746.625C1570.12 744.83 1568.67 743.375 1566.88 743.375C1565.08 743.375 1563.62 744.83 1563.62 746.625C1563.62 748.42 1565.08 749.875 1566.88 749.875Z" fill="#2B3640"/>
<path d="M1566.88 712.5C1568.67 712.5 1570.12 711.045 1570.12 709.25C1570.12 707.455 1568.67 706 1566.88 706C1565.08 706 1563.62 707.455 1563.62 709.25C1563.62 711.045 1565.08 712.5 1566.88 712.5Z" fill="#2B3640"/>
<path d="M1566.88 675.125C1568.67 675.125 1570.12 673.67 1570.12 671.875C1570.12 670.08 1568.67 668.625 1566.88 668.625C1565.08 668.625 1563.62 670.08 1563.62 671.875C1563.62 673.67 1565.08 675.125 1566.88 675.125Z" fill="#2B3640"/>
<path d="M1566.88 637.75C1568.67 637.75 1570.12 636.295 1570.12 634.5C1570.12 632.705 1568.67 631.25 1566.88 631.25C1565.08 631.25 1563.62 632.705 1563.62 634.5C1563.62 636.295 1565.08 637.75 1566.88 637.75Z" fill="#2B3640"/>
<path d="M1607.5 787.25C1609.29 787.25 1610.75 785.795 1610.75 784C1610.75 782.205 1609.29 780.75 1607.5 780.75C1605.71 780.75 1604.25 782.205 1604.25 784C1604.25 785.795 1605.71 787.25 1607.5 787.25Z" fill="#2B3640"/>
<path d="M1607.5 749.875C1609.29 749.875 1610.75 748.42 1610.75 746.625C1610.75 744.83 1609.29 743.375 1607.5 743.375C1605.71 743.375 1604.25 744.83 1604.25 746.625C1604.25 748.42 1605.71 749.875 1607.5 749.875Z" fill="#2B3640"/>
<path d="M1607.5 712.5C1609.29 712.5 1610.75 711.045 1610.75 709.25C1610.75 707.455 1609.29 706 1607.5 706C1605.71 706 1604.25 707.455 1604.25 709.25C1604.25 711.045 1605.71 712.5 1607.5 712.5Z" fill="#2B3640"/>
<path d="M1607.5 675.125C1609.29 675.125 1610.75 673.67 1610.75 671.875C1610.75 670.08 1609.29 668.625 1607.5 668.625C1605.71 668.625 1604.25 670.08 1604.25 671.875C1604.25 673.67 1605.71 675.125 1607.5 675.125Z" fill="#2B3640"/>
<path d="M1607.5 637.75C1609.29 637.75 1610.75 636.295 1610.75 634.5C1610.75 632.705 1609.29 631.25 1607.5 631.25C1605.71 631.25 1604.25 632.705 1604.25 634.5C1604.25 636.295 1605.71 637.75 1607.5 637.75Z" fill="#2B3640"/>
<path d="M1648.12 787.25C1649.92 787.25 1651.38 785.795 1651.38 784C1651.38 782.205 1649.92 780.75 1648.12 780.75C1646.33 780.75 1644.88 782.205 1644.88 784C1644.88 785.795 1646.33 787.25 1648.12 787.25Z" fill="#2B3640"/>
<path d="M1648.12 749.875C1649.92 749.875 1651.38 748.42 1651.38 746.625C1651.38 744.83 1649.92 743.375 1648.12 743.375C1646.33 743.375 1644.88 744.83 1644.88 746.625C1644.88 748.42 1646.33 749.875 1648.12 749.875Z" fill="#2B3640"/>
<path d="M1648.12 712.5C1649.92 712.5 1651.38 711.045 1651.38 709.25C1651.38 707.455 1649.92 706 1648.12 706C1646.33 706 1644.88 707.455 1644.88 709.25C1644.88 711.045 1646.33 712.5 1648.12 712.5Z" fill="#2B3640"/>
<path d="M1648.12 675.125C1649.92 675.125 1651.38 673.67 1651.38 671.875C1651.38 670.08 1649.92 668.625 1648.12 668.625C1646.33 668.625 1644.88 670.08 1644.88 671.875C1644.88 673.67 1646.33 675.125 1648.12 675.125Z" fill="#2B3640"/>
<path d="M1648.12 637.75C1649.92 637.75 1651.38 636.295 1651.38 634.5C1651.38 632.705 1649.92 631.25 1648.12 631.25C1646.33 631.25 1644.88 632.705 1644.88 634.5C1644.88 636.295 1646.33 637.75 1648.12 637.75Z" fill="#2B3640"/>
<path d="M1688.75 787.25C1690.54 787.25 1692 785.795 1692 784C1692 782.205 1690.54 780.75 1688.75 780.75C1686.96 780.75 1685.5 782.205 1685.5 784C1685.5 785.795 1686.96 787.25 1688.75 787.25Z" fill="#2B3640"/>
<path d="M1688.75 749.875C1690.54 749.875 1692 748.42 1692 746.625C1692 744.83 1690.54 743.375 1688.75 743.375C1686.96 743.375 1685.5 744.83 1685.5 746.625C1685.5 748.42 1686.96 749.875 1688.75 749.875Z" fill="#2B3640"/>
<path d="M1688.75 712.5C1690.54 712.5 1692 711.045 1692 709.25C1692 707.455 1690.54 706 1688.75 706C1686.96 706 1685.5 707.455 1685.5 709.25C1685.5 711.045 1686.96 712.5 1688.75 712.5Z" fill="#2B3640"/>
<path d="M1688.75 675.125C1690.54 675.125 1692 673.67 1692 671.875C1692 670.08 1690.54 668.625 1688.75 668.625C1686.96 668.625 1685.5 670.08 1685.5 671.875C1685.5 673.67 1686.96 675.125 1688.75 675.125Z" fill="#2B3640"/>
<path d="M1688.75 637.75C1690.54 637.75 1692 636.295 1692 634.5C1692 632.705 1690.54 631.25 1688.75 631.25C1686.96 631.25 1685.5 632.705 1685.5 634.5C1685.5 636.295 1686.96 637.75 1688.75 637.75Z" fill="#2B3640"/>
</g>
</g>
<defs>
<clipPath id="clip0_858_1495">
<rect width="1950" height="1300" fill="white" transform="translate(-15)"/>
</clipPath>
</defs>
</svg>
