<svg width="36" height="36" viewBox="0 0 36 36" fill="none" xmlns="http://www.w3.org/2000/svg">
<g clip-path="url(#clip0_905_1581)">
<path d="M28.5 6H26.85C26.5019 4.30712 25.5807 2.78602 24.2419 1.69308C22.903 0.600135 21.2283 0.00218179 19.5 0L16.5 0C14.7717 0.00218179 13.097 0.600135 11.7581 1.69308C10.4193 2.78602 9.49814 4.30712 9.15 6H7.5C5.51161 6.00238 3.60534 6.79332 2.19933 8.19933C0.793323 9.60534 0.00238179 11.5116 0 13.5L0 28.5C0.00238179 30.4884 0.793323 32.3947 2.19933 33.8007C3.60534 35.2067 5.51161 35.9976 7.5 36H28.5C30.4884 35.9976 32.3947 35.2067 33.8007 33.8007C35.2067 32.3947 35.9976 30.4884 36 28.5V13.5C35.9976 11.5116 35.2067 9.60534 33.8007 8.19933C32.3947 6.79332 30.4884 6.00238 28.5 6ZM16.5 3H19.5C20.4274 3.00384 21.3309 3.29413 22.087 3.83113C22.8432 4.36814 23.4149 5.12564 23.724 6H12.276C12.5851 5.12564 13.1568 4.36814 13.913 3.83113C14.6691 3.29413 15.5726 3.00384 16.5 3ZM7.5 9H28.5C29.6935 9 30.8381 9.47411 31.682 10.318C32.5259 11.1619 33 12.3065 33 13.5V18H3V13.5C3 12.3065 3.47411 11.1619 4.31802 10.318C5.16193 9.47411 6.30653 9 7.5 9ZM28.5 33H7.5C6.30653 33 5.16193 32.5259 4.31802 31.682C3.47411 30.8381 3 29.6935 3 28.5V21H16.5V22.5C16.5 22.8978 16.658 23.2794 16.9393 23.5607C17.2206 23.842 17.6022 24 18 24C18.3978 24 18.7794 23.842 19.0607 23.5607C19.342 23.2794 19.5 22.8978 19.5 22.5V21H33V28.5C33 29.6935 32.5259 30.8381 31.682 31.682C30.8381 32.5259 29.6935 33 28.5 33Z" fill="#2FAD66"/>
</g>
<defs>
<clipPath id="clip0_905_1581">
<rect width="36" height="36" fill="white"/>
</clipPath>
</defs>
</svg>
