<svg width="36" height="36" viewBox="0 0 36 36" fill="none" xmlns="http://www.w3.org/2000/svg">
<g clip-path="url(#clip0_905_1521)">
<path d="M36 15.0001C36 14.8906 35.988 14.7815 35.964 14.6746L34.014 5.87263C33.6517 4.20198 32.726 2.7067 31.3921 1.6375C30.0583 0.568298 28.3974 -0.00980457 26.688 0.000125833H9.31197C7.60355 -0.00842462 5.94407 0.570308 4.61146 1.6394C3.27886 2.70848 2.35407 4.203 1.99197 5.87263L0.0359715 14.6746C0.0119837 14.7815 -9.00074e-05 14.8906 -2.84635e-05 15.0001V16.5001C-0.00123867 17.9605 0.532353 19.3708 1.49997 20.4646V28.5001C1.50235 30.4885 2.29329 32.3948 3.6993 33.8008C5.10531 35.2068 7.01158 35.9977 8.99997 36.0001H27C28.9884 35.9977 30.8946 35.2068 32.3006 33.8008C33.7066 32.3948 34.4976 30.4885 34.5 28.5001V20.4646C35.4676 19.3708 36.0012 17.9605 36 16.5001V15.0001ZM2.99997 15.1636L4.91997 6.52363C5.13754 5.52201 5.6925 4.62549 6.49199 3.98409C7.29148 3.34269 8.28701 2.99533 9.31197 3.00013H10.5V7.50013C10.5 7.89795 10.658 8.27948 10.9393 8.56079C11.2206 8.84209 11.6021 9.00013 12 9.00013C12.3978 9.00013 12.7793 8.84209 13.0606 8.56079C13.3419 8.27948 13.5 7.89795 13.5 7.50013V3.00013H22.5V7.50013C22.5 7.89795 22.658 8.27948 22.9393 8.56079C23.2206 8.84209 23.6021 9.00013 24 9.00013C24.3978 9.00013 24.7793 8.84209 25.0606 8.56079C25.3419 8.27948 25.5 7.89795 25.5 7.50013V3.00013H26.688C27.7129 2.99533 28.7085 3.34269 29.508 3.98409C30.3074 4.62549 30.8624 5.52201 31.08 6.52363L33 15.1636V16.5001C33 17.2958 32.6839 18.0588 32.1213 18.6214C31.5587 19.1841 30.7956 19.5001 30 19.5001H28.5C27.7043 19.5001 26.9413 19.1841 26.3787 18.6214C25.816 18.0588 25.5 17.2958 25.5 16.5001C25.5 16.1023 25.3419 15.7208 25.0606 15.4395C24.7793 15.1582 24.3978 15.0001 24 15.0001C23.6021 15.0001 23.2206 15.1582 22.9393 15.4395C22.658 15.7208 22.5 16.1023 22.5 16.5001C22.5 17.2958 22.1839 18.0588 21.6213 18.6214C21.0587 19.1841 20.2956 19.5001 19.5 19.5001H16.5C15.7043 19.5001 14.9413 19.1841 14.3787 18.6214C13.816 18.0588 13.5 17.2958 13.5 16.5001C13.5 16.1023 13.3419 15.7208 13.0606 15.4395C12.7793 15.1582 12.3978 15.0001 12 15.0001C11.6021 15.0001 11.2206 15.1582 10.9393 15.4395C10.658 15.7208 10.5 16.1023 10.5 16.5001C10.5 17.2958 10.1839 18.0588 9.62129 18.6214C9.05868 19.1841 8.29562 19.5001 7.49997 19.5001H5.99997C5.20432 19.5001 4.44126 19.1841 3.87865 18.6214C3.31604 18.0588 2.99997 17.2958 2.99997 16.5001V15.1636ZM27 33.0001H8.99997C7.8065 33.0001 6.6619 32.526 5.81799 31.6821C4.97408 30.8382 4.49997 29.6936 4.49997 28.5001V22.3096C4.98987 22.4365 5.49392 22.5005 5.99997 22.5001H7.49997C8.35169 22.5006 9.1937 22.3192 9.96973 21.9682C10.7458 21.6172 11.4379 21.1046 12 20.4646C12.562 21.1046 13.2542 21.6172 14.0302 21.9682C14.8062 22.3192 15.6482 22.5006 16.5 22.5001H19.5C20.3517 22.5006 21.1937 22.3192 21.9697 21.9682C22.7458 21.6172 23.4379 21.1046 24 20.4646C24.562 21.1046 25.2542 21.6172 26.0302 21.9682C26.8062 22.3192 27.6483 22.5006 28.5 22.5001H30C30.506 22.5005 31.0101 22.4365 31.5 22.3096V28.5001C31.5 29.6936 31.0259 30.8382 30.182 31.6821C29.338 32.526 28.1934 33.0001 27 33.0001Z" fill="#2FAD66"/>
</g>
<defs>
<clipPath id="clip0_905_1521">
<rect width="36" height="36" fill="white"/>
</clipPath>
</defs>
</svg>
