<svg width="36" height="36" viewBox="0 0 36 36" fill="none" xmlns="http://www.w3.org/2000/svg">
<g clip-path="url(#clip0_905_1503)">
<path d="M34.5 33H7.5C6.30653 33 5.16193 32.5259 4.31802 31.682C3.47411 30.8381 3 29.6935 3 28.5V1.5C3 1.10218 2.84196 0.720644 2.56066 0.43934C2.27936 0.158035 1.89782 0 1.5 0C1.10218 0 0.720644 0.158035 0.43934 0.43934C0.158035 0.720644 0 1.10218 0 1.5L0 28.5C0.00238179 30.4884 0.793323 32.3947 2.19933 33.8007C3.60534 35.2067 5.51161 35.9976 7.5 36H34.5C34.8978 36 35.2794 35.842 35.5607 35.5607C35.842 35.2794 36 34.8978 36 34.5C36 34.1022 35.842 33.7206 35.5607 33.4393C35.2794 33.158 34.8978 33 34.5 33Z" fill="#2FAD66"/>
<path d="M9.00024 30C9.39807 30 9.7796 29.842 10.0609 29.5607C10.3422 29.2794 10.5002 28.8978 10.5002 28.5V18C10.5002 17.6022 10.3422 17.2206 10.0609 16.9393C9.7796 16.658 9.39807 16.5 9.00024 16.5C8.60242 16.5 8.22089 16.658 7.93958 16.9393C7.65828 17.2206 7.50024 17.6022 7.50024 18V28.5C7.50024 28.8978 7.65828 29.2794 7.93958 29.5607C8.22089 29.842 8.60242 30 9.00024 30Z" fill="#2FAD66"/>
<path d="M14.9998 15V28.5C14.9998 28.8978 15.1578 29.2793 15.4391 29.5606C15.7204 29.8419 16.1019 30 16.4998 30C16.8976 30 17.2791 29.8419 17.5604 29.5606C17.8417 29.2793 17.9998 28.8978 17.9998 28.5V15C17.9998 14.6022 17.8417 14.2206 17.5604 13.9393C17.2791 13.658 16.8976 13.5 16.4998 13.5C16.1019 13.5 15.7204 13.658 15.4391 13.9393C15.1578 14.2206 14.9998 14.6022 14.9998 15Z" fill="#2FAD66"/>
<path d="M22.5 19.5V28.5C22.5 28.8978 22.658 29.2793 22.9393 29.5606C23.2206 29.8419 23.6022 30 24 30C24.3978 30 24.7794 29.8419 25.0607 29.5606C25.342 29.2793 25.5 28.8978 25.5 28.5V19.5C25.5 19.1022 25.342 18.7206 25.0607 18.4393C24.7794 18.158 24.3978 18 24 18C23.6022 18 23.2206 18.158 22.9393 18.4393C22.658 18.7206 22.5 19.1022 22.5 19.5Z" fill="#2FAD66"/>
<path d="M30.0002 13.4998V28.4998C30.0002 28.8976 30.1583 29.2791 30.4396 29.5604C30.7209 29.8417 31.1024 29.9998 31.5003 29.9998C31.8981 29.9998 32.2796 29.8417 32.5609 29.5604C32.8422 29.2791 33.0003 28.8976 33.0003 28.4998V13.4998C33.0003 13.1019 32.8422 12.7204 32.5609 12.4391C32.2796 12.1578 31.8981 11.9998 31.5003 11.9998C31.1024 11.9998 30.7209 12.1578 30.4396 12.4391C30.1583 12.7204 30.0002 13.1019 30.0002 13.4998Z" fill="#2FAD66"/>
<path d="M8.99974 13.4999C9.39753 13.4998 9.779 13.3417 10.0602 13.0604L15.4392 7.68138C15.7251 7.40902 16.1049 7.25709 16.4997 7.25709C16.8946 7.25709 17.2743 7.40902 17.5602 7.68138L20.8182 10.9394C21.6621 11.783 22.8065 12.2569 23.9997 12.2569C25.193 12.2569 26.3374 11.783 27.1812 10.9394L35.5602 2.56038C35.8335 2.27748 35.9847 1.89857 35.9813 1.50528C35.9778 1.11198 35.8201 0.735763 35.542 0.45765C35.2639 0.179538 34.8876 0.0217849 34.4943 0.0183673C34.101 0.0149496 33.7221 0.166141 33.4392 0.439378L25.0602 8.81688C24.7789 9.09808 24.3975 9.25606 23.9997 9.25606C23.602 9.25606 23.2205 9.09808 22.9392 8.81688L19.6812 5.56038C18.8374 4.71676 17.693 4.24284 16.4997 4.24284C15.3065 4.24284 14.1621 4.71676 13.3182 5.56038L7.93924 10.9394C7.72953 11.1492 7.58672 11.4164 7.52887 11.7073C7.47101 11.9983 7.50072 12.2998 7.61422 12.5739C7.72773 12.8479 7.91994 13.0822 8.16655 13.247C8.41317 13.4118 8.70312 13.4998 8.99974 13.4999Z" fill="#2FAD66"/>
</g>
<defs>
<clipPath id="clip0_905_1503">
<rect width="36" height="36" fill="white"/>
</clipPath>
</defs>
</svg>
