<svg width="36" height="36" viewBox="0 0 36 36" fill="none" xmlns="http://www.w3.org/2000/svg">
<path d="M26.2061 7.08462H23.3056C22.9511 5.41024 22.1088 3.86645 20.8487 2.61865C19.1426 0.929758 16.8877 0 14.4994 0C12.1112 0 9.85681 0.929758 8.15018 2.61865C6.88999 3.86645 6.04773 5.41024 5.69383 7.08462H2.79395C1.25087 7.08462 0 8.33185 0 9.87042V33.2142C0 34.7528 1.25087 36 2.79395 36H11.7352C12.0565 36 12.3172 35.74 12.3172 35.4196V21.4918C12.3172 21.1715 12.578 20.9114 12.8993 20.9114H16.1007C16.422 20.9114 16.6828 21.1715 16.6828 21.4918V21.8215C16.6828 21.865 16.7282 21.8923 16.7672 21.8731C16.9924 21.7588 17.22 21.6485 17.4499 21.5423C17.6467 21.4512 17.8452 21.3636 18.0454 21.2794C20.4732 20.2556 23.0506 19.7362 25.7066 19.7362C26.5949 19.7362 27.4738 19.7942 28.3411 19.9103C28.6898 19.9567 29 19.6863 29 19.3357V9.871C29 8.33243 27.7491 7.0852 26.2061 7.0852V7.08462ZM7.62282 7.08462C8.43423 4.07829 11.2101 1.85778 14.4994 1.85778C17.7887 1.85778 20.5652 4.07829 21.3766 7.08462H7.62282Z" fill="#1C2344"/>
<path d="M28.5215 24.3478C27.6088 24.1778 26.6682 24.089 25.7066 24.089C25.6729 24.089 25.6391 24.089 25.6054 24.089C20.6659 24.1209 16.6828 28.1336 16.6828 33.0587V35.419C16.6828 35.7394 16.9435 35.9994 17.2648 35.9994H26.2061C27.7491 35.9994 29 34.7522 29 33.2136V24.9183C29 24.6374 28.798 24.3983 28.5215 24.3473V24.3478Z" fill="#2FAC66"/>
</svg>
