<svg width="36" height="36" viewBox="0 0 36 36" fill="none" xmlns="http://www.w3.org/2000/svg">
<path d="M18 13.4999V19.4999M18 25.4999H18.015M15.36 5.93544L2.72703 27.0254C2.46674 27.4765 2.32905 27.9878 2.32765 28.5086C2.32624 29.0293 2.46117 29.5414 2.71902 29.9939C2.97687 30.4463 3.34866 30.8234 3.79743 31.0876C4.24619 31.3518 4.7563 31.494 5.27703 31.4999H30.5445C31.0653 31.494 31.5754 31.3518 32.0241 31.0876C32.4729 30.8234 32.8447 30.4463 33.1025 29.9939C33.3604 29.5414 33.4953 29.0293 33.4939 28.5086C33.4925 27.9878 33.3548 27.4765 33.0945 27.0254L20.46 5.93544C20.194 5.49742 19.8196 5.13532 19.373 4.88403C18.9263 4.63274 18.4225 4.50073 17.91 4.50073C17.3976 4.50073 16.8937 4.63274 16.4471 4.88403C16.0004 5.13532 15.6261 5.49742 15.36 5.93544Z" stroke="#2FAD66" stroke-width="3" stroke-linecap="round" stroke-linejoin="round"/>
</svg>
