<svg width="36" height="36" viewBox="0 0 36 36" fill="none" xmlns="http://www.w3.org/2000/svg">
<g clip-path="url(#clip0_905_1554)">
<path d="M24 0H12C10.0116 0.00238179 8.10532 0.793323 6.69931 2.19933C5.29331 3.60534 4.50237 5.51161 4.49998 7.5V34.5C4.5002 34.7728 4.57481 35.0404 4.71581 35.274C4.8568 35.5076 5.05883 35.6983 5.30014 35.8256C5.54146 35.9529 5.81292 36.0119 6.0853 35.9964C6.35769 35.9809 6.62069 35.8914 6.84598 35.7375L10.005 33.579L13.164 35.7375C13.4136 35.9084 13.709 35.9999 14.0115 35.9999C14.314 35.9999 14.6094 35.9084 14.859 35.7375L18.009 33.579L21.159 35.7375C21.4087 35.9087 21.7044 36.0004 22.0072 36.0004C22.31 36.0004 22.6057 35.9087 22.8555 35.7375L26.0055 33.5805L29.1555 35.736C29.3807 35.8894 29.6434 35.9786 29.9154 35.9939C30.1874 36.0093 30.4585 35.9503 30.6995 35.8232C30.9405 35.6962 31.1424 35.5058 31.2834 35.2727C31.4244 35.0396 31.4993 34.7725 31.5 34.5V7.5C31.4976 5.51161 30.7067 3.60534 29.3007 2.19933C27.8946 0.793323 25.9884 0.00238179 24 0V0ZM28.5 31.65L26.85 30.522C26.6001 30.3504 26.3041 30.2586 26.001 30.2586C25.6979 30.2586 25.4019 30.3504 25.152 30.522L22.002 32.6805L18.852 30.522C18.6022 30.3508 18.3065 30.2591 18.0037 30.2591C17.7009 30.2591 17.4052 30.3508 17.1555 30.522L14.0055 32.6805L10.8555 30.522C10.6061 30.3514 10.3109 30.2602 10.0087 30.2602C9.70655 30.2602 9.41142 30.3514 9.16198 30.522L7.49998 31.65V7.5C7.49998 6.30653 7.97409 5.16193 8.818 4.31802C9.66192 3.47411 10.8065 3 12 3H24C25.1935 3 26.3381 3.47411 27.182 4.31802C28.0259 5.16193 28.5 6.30653 28.5 7.5V31.65Z" fill="#2FAD66"/>
<path d="M23.9998 12.001H11.9998C11.1713 12.001 10.4998 12.6725 10.4998 13.501C10.4998 14.3294 11.1713 15.001 11.9998 15.001H23.9998C24.8282 15.001 25.4998 14.3294 25.4998 13.501C25.4998 12.6725 24.8282 12.001 23.9998 12.001Z" fill="#2FAD66"/>
<path d="M20.9997 18H11.9998C11.1713 18 10.4998 18.6716 10.4998 19.5C10.4998 20.3284 11.1713 21 11.9998 21H20.9997C21.8282 21 22.4997 20.3284 22.4997 19.5C22.4997 18.6716 21.8282 18 20.9997 18Z" fill="#2FAD66"/>
</g>
<defs>
<clipPath id="clip0_905_1554">
<rect width="36" height="36" fill="white"/>
</clipPath>
</defs>
</svg>
