<svg width="36" height="36" viewBox="0 0 36 36" fill="none" xmlns="http://www.w3.org/2000/svg">
<g clip-path="url(#clip0_903_1484)">
<path d="M33.7277 16.4628L18.0002 25.9008L2.27273 16.4628C1.93159 16.2581 1.52312 16.1973 1.13717 16.2938C0.751222 16.3903 0.419409 16.6362 0.214728 16.9773C0.0100474 17.3184 -0.050735 17.7269 0.0457524 18.1128C0.14224 18.4988 0.388094 18.8306 0.729228 19.0353L17.2292 28.9353C17.4625 29.0755 17.7296 29.1495 18.0017 29.1495C18.2739 29.1495 18.5409 29.0755 18.7742 28.9353L35.2742 19.0353C35.6154 18.8306 35.8612 18.4988 35.9577 18.1128C36.0542 17.7269 35.9934 17.3184 35.7887 16.9773C35.584 16.6362 35.2522 16.3903 34.8663 16.2938C34.4803 16.1973 34.0719 16.2581 33.7307 16.4628H33.7277Z" fill="#2FAD66"/>
<path d="M33.7278 23.3144L18.0003 32.7509L2.27283 23.3144C2.10392 23.213 1.9167 23.1459 1.72186 23.1169C1.52702 23.0879 1.32838 23.0976 1.13727 23.1454C0.946171 23.1932 0.76635 23.2781 0.608076 23.3954C0.449803 23.5126 0.316178 23.6599 0.214831 23.8289C0.113483 23.9978 0.0463975 24.185 0.0174045 24.3798C-0.0115884 24.5747 -0.00192097 24.7733 0.0458548 24.9644C0.142342 25.3504 0.388196 25.6822 0.729331 25.8869L17.2293 35.7869C17.4626 35.9271 17.7297 36.0011 18.0018 36.0011C18.274 36.0011 18.541 35.9271 18.7743 35.7869L35.2743 25.8869C35.6155 25.6822 35.8613 25.3504 35.9578 24.9644C36.0543 24.5785 35.9935 24.17 35.7888 23.8289C35.5842 23.4877 35.2523 23.2419 34.8664 23.1454C34.4804 23.0489 34.072 23.1097 33.7308 23.3144H33.7278Z" fill="#2FAD66"/>
<path d="M17.9999 22.1601C17.1907 22.1596 16.3969 21.9393 15.7034 21.5226L0.727361 12.5361C0.505583 12.4027 0.322077 12.2143 0.194682 11.989C0.0672871 11.7637 0.000335693 11.5094 0.000335693 11.2506C0.000335693 10.9918 0.0672871 10.7374 0.194682 10.5121C0.322077 10.2869 0.505583 10.0984 0.727361 9.96507L15.7034 0.978572C16.3969 0.561916 17.1908 0.341797 17.9999 0.341797C18.809 0.341797 19.6028 0.561916 20.2964 0.978572L35.2724 9.96507C35.4941 10.0984 35.6776 10.2869 35.805 10.5121C35.9324 10.7374 35.9994 10.9918 35.9994 11.2506C35.9994 11.5094 35.9324 11.7637 35.805 11.989C35.6776 12.2143 35.4941 12.4027 35.2724 12.5361L20.2964 21.5226C19.6028 21.9393 18.809 22.1596 17.9999 22.1601ZM4.41586 11.2506L17.2499 18.9501C17.4765 19.0857 17.7357 19.1573 17.9999 19.1573C18.264 19.1573 18.5232 19.0857 18.7499 18.9501L31.5839 11.2506L18.7499 3.55107C18.5232 3.41548 18.264 3.34387 17.9999 3.34387C17.7357 3.34387 17.4765 3.41548 17.2499 3.55107L4.41586 11.2506Z" fill="#2FAD66"/>
</g>
<defs>
<clipPath id="clip0_903_1484">
<rect width="36" height="36" fill="white"/>
</clipPath>
</defs>
</svg>
