<svg width="36" height="36" viewBox="0 0 36 36" fill="none" xmlns="http://www.w3.org/2000/svg">
<g clip-path="url(#clip0_905_1597)">
<path d="M28.5 30.0005H7.5C5.51161 29.9981 3.60534 29.2072 2.19933 27.8012C0.793323 26.3952 0.00238179 24.4889 0 22.5005L0 13.5005C0.00238179 11.5121 0.793323 9.60582 2.19933 8.19982C3.60534 6.79381 5.51161 6.00287 7.5 6.00049H28.5C30.4884 6.00287 32.3947 6.79381 33.8007 8.19982C35.2067 9.60582 35.9976 11.5121 36 13.5005V22.5005C35.9976 24.4889 35.2067 26.3952 33.8007 27.8012C32.3947 29.2072 30.4884 29.9981 28.5 30.0005ZM7.5 9.00049C6.30653 9.00049 5.16193 9.47459 4.31802 10.3185C3.47411 11.1624 3 12.307 3 13.5005V22.5005C3 23.694 3.47411 24.8386 4.31802 25.6825C5.16193 26.5264 6.30653 27.0005 7.5 27.0005H28.5C29.6935 27.0005 30.8381 26.5264 31.682 25.6825C32.5259 24.8386 33 23.694 33 22.5005V13.5005C33 12.307 32.5259 11.1624 31.682 10.3185C30.8381 9.47459 29.6935 9.00049 28.5 9.00049H7.5ZM18 24.0005C16.8133 24.0005 15.6533 23.6486 14.6666 22.9893C13.6799 22.33 12.9108 21.3929 12.4567 20.2966C12.0026 19.2002 11.8838 17.9938 12.1153 16.8299C12.3468 15.6661 12.9182 14.597 13.7574 13.7578C14.5965 12.9187 15.6656 12.3473 16.8295 12.1158C17.9933 11.8843 19.1997 12.0031 20.2961 12.4572C21.3925 12.9113 22.3295 13.6804 22.9888 14.6671C23.6481 15.6538 24 16.8138 24 18.0005C24 19.5918 23.3679 21.1179 22.2426 22.2431C21.1174 23.3683 19.5913 24.0005 18 24.0005ZM18 15.0005C17.4067 15.0005 16.8266 15.1764 16.3333 15.5061C15.8399 15.8357 15.4554 16.3043 15.2284 16.8524C15.0013 17.4006 14.9419 18.0038 15.0576 18.5858C15.1734 19.1677 15.4591 19.7023 15.8787 20.1218C16.2982 20.5414 16.8328 20.8271 17.4147 20.9428C17.9967 21.0586 18.5999 20.9992 19.1481 20.7721C19.6962 20.5451 20.1648 20.1605 20.4944 19.6672C20.8241 19.1739 21 18.5938 21 18.0005C21 17.2048 20.6839 16.4418 20.1213 15.8792C19.5587 15.3166 18.7956 15.0005 18 15.0005ZM7.5 12.0005C7.20333 12.0005 6.91332 12.0885 6.66665 12.2533C6.41997 12.4181 6.22771 12.6524 6.11418 12.9265C6.00065 13.2006 5.97094 13.5022 6.02882 13.7931C6.0867 14.0841 6.22956 14.3514 6.43934 14.5611C6.64912 14.7709 6.91639 14.9138 7.20736 14.9717C7.49834 15.0295 7.79994 14.9998 8.07403 14.8863C8.34811 14.7728 8.58238 14.5805 8.7472 14.3338C8.91203 14.0872 9 13.7972 9 13.5005C9 13.1027 8.84196 12.7211 8.56066 12.4398C8.27936 12.1585 7.89782 12.0005 7.5 12.0005ZM27 13.5005C27 13.7972 27.088 14.0872 27.2528 14.3338C27.4176 14.5805 27.6519 14.7728 27.926 14.8863C28.2001 14.9998 28.5017 15.0295 28.7926 14.9717C29.0836 14.9138 29.3509 14.7709 29.5607 14.5611C29.7704 14.3514 29.9133 14.0841 29.9712 13.7931C30.0291 13.5022 29.9994 13.2006 29.8858 12.9265C29.7723 12.6524 29.58 12.4181 29.3334 12.2533C29.0867 12.0885 28.7967 12.0005 28.5 12.0005C28.1022 12.0005 27.7206 12.1585 27.4393 12.4398C27.158 12.7211 27 13.1027 27 13.5005ZM7.5 21.0005C7.20333 21.0005 6.91332 21.0885 6.66665 21.2533C6.41997 21.4181 6.22771 21.6524 6.11418 21.9265C6.00065 22.2006 5.97094 22.5022 6.02882 22.7931C6.0867 23.0841 6.22956 23.3514 6.43934 23.5611C6.64912 23.7709 6.91639 23.9138 7.20736 23.9717C7.49834 24.0295 7.79994 23.9998 8.07403 23.8863C8.34811 23.7728 8.58238 23.5805 8.7472 23.3338C8.91203 23.0872 9 22.7972 9 22.5005C9 22.1027 8.84196 21.7211 8.56066 21.4398C8.27936 21.1585 7.89782 21.0005 7.5 21.0005ZM27 22.5005C27 22.7972 27.088 23.0872 27.2528 23.3338C27.4176 23.5805 27.6519 23.7728 27.926 23.8863C28.2001 23.9998 28.5017 24.0295 28.7926 23.9717C29.0836 23.9138 29.3509 23.7709 29.5607 23.5611C29.7704 23.3514 29.9133 23.0841 29.9712 22.7931C30.0291 22.5022 29.9994 22.2006 29.8858 21.9265C29.7723 21.6524 29.58 21.4181 29.3334 21.2533C29.0867 21.0885 28.7967 21.0005 28.5 21.0005C28.1022 21.0005 27.7206 21.1585 27.4393 21.4398C27.158 21.7211 27 22.1027 27 22.5005Z" fill="#2FAD66"/>
</g>
<defs>
<clipPath id="clip0_905_1597">
<rect width="36" height="36" fill="white"/>
</clipPath>
</defs>
</svg>
