<svg width="36" height="36" viewBox="0 0 36 36" fill="none" xmlns="http://www.w3.org/2000/svg">
<g clip-path="url(#clip0_909_1669)">
<path d="M28.5 1.5H7.5C5.51161 1.50238 3.60534 2.29332 2.19933 3.69933C0.793323 5.10534 0.00238179 7.01161 0 9L0 27C0.00238179 28.9884 0.793323 30.8947 2.19933 32.3007C3.60534 33.7067 5.51161 34.4976 7.5 34.5H28.5C30.4884 34.4976 32.3947 33.7067 33.8007 32.3007C35.2067 30.8947 35.9976 28.9884 36 27V9C35.9976 7.01161 35.2067 5.10534 33.8007 3.69933C32.3947 2.29332 30.4884 1.50238 28.5 1.5ZM7.5 4.5H28.5C29.3982 4.50177 30.2753 4.77227 31.0184 5.27671C31.7616 5.78114 32.3368 6.49642 32.67 7.3305L21.183 18.819C20.3376 19.661 19.1931 20.1337 18 20.1337C16.8069 20.1337 15.6624 19.661 14.817 18.819L3.33 7.3305C3.66322 6.49642 4.23842 5.78114 4.98157 5.27671C5.72472 4.77227 6.60182 4.50177 7.5 4.5ZM28.5 31.5H7.5C6.30653 31.5 5.16193 31.0259 4.31802 30.182C3.47411 29.3381 3 28.1935 3 27V11.25L12.696 20.94C14.1039 22.3444 16.0114 23.1331 18 23.1331C19.9886 23.1331 21.8961 22.3444 23.304 20.94L33 11.25V27C33 28.1935 32.5259 29.3381 31.682 30.182C30.8381 31.0259 29.6935 31.5 28.5 31.5Z" fill="#2FAD66"/>
</g>
<defs>
<clipPath id="clip0_909_1669">
<rect width="36" height="36" fill="white"/>
</clipPath>
</defs>
</svg>
