<svg width="36" height="36" viewBox="0 0 36 36" fill="none" xmlns="http://www.w3.org/2000/svg">
<g clip-path="url(#clip0_905_1531)">
<path d="M20.8982 6C22.1184 6.00119 23.2882 6.48643 24.151 7.34921C25.0138 8.212 25.4991 9.38184 25.5002 10.602C25.5002 10.9998 25.6583 11.3814 25.9396 11.6627C26.2209 11.944 26.6024 12.102 27.0002 12.102C27.3981 12.102 27.7796 11.944 28.0609 11.6627C28.3422 11.3814 28.5002 10.9998 28.5002 10.602V10.5C28.5002 10.4715 28.5002 10.446 28.5002 10.4175C28.4502 8.43409 27.6275 6.54867 26.2074 5.16308C24.7873 3.77749 22.8823 3.00132 20.8982 3H19.5002V1.5C19.5002 1.10218 19.3422 0.720644 19.0609 0.43934C18.7796 0.158035 18.3981 0 18.0002 0C17.6024 0 17.2209 0.158035 16.9396 0.43934C16.6583 0.720644 16.5002 1.10218 16.5002 1.5V3H15.1022C13.2982 3.00193 11.5537 3.64535 10.1804 4.81527C8.80719 5.98518 7.89476 7.60534 7.60622 9.38614C7.31769 11.1669 7.67186 12.9923 8.60543 14.536C9.539 16.0797 10.9911 17.241 12.7022 17.8125L16.5002 19.08V30H15.1022C13.8821 29.9988 12.7122 29.5136 11.8495 28.6508C10.9867 27.788 10.5014 26.6182 10.5002 25.398C10.5002 25.0002 10.3422 24.6186 10.0609 24.3373C9.7796 24.056 9.39807 23.898 9.00024 23.898C8.60242 23.898 8.22089 24.056 7.93958 24.3373C7.65828 24.6186 7.50024 25.0002 7.50024 25.398V25.5C7.50024 25.5285 7.50024 25.554 7.50024 25.5825C7.5503 27.5659 8.37304 29.4513 9.79309 30.8369C11.2131 32.2225 13.1182 32.9987 15.1022 33H16.5002V34.5C16.5002 34.8978 16.6583 35.2794 16.9396 35.5607C17.2209 35.842 17.6024 36 18.0002 36C18.3981 36 18.7796 35.842 19.0609 35.5607C19.3422 35.2794 19.5002 34.8978 19.5002 34.5V33H20.8982C22.7023 32.9981 24.4468 32.3546 25.8201 31.1847C27.1933 30.0148 28.1057 28.3947 28.3943 26.6139C28.6828 24.8331 28.3286 23.0077 27.3951 21.464C26.4615 19.9203 25.0094 18.759 23.2982 18.1875L19.5002 16.92V6H20.8982ZM22.3532 21.0315C23.3904 21.3767 24.2708 22.0798 24.8368 23.0149C25.4029 23.95 25.6176 25.056 25.4426 26.135C25.2675 27.2139 24.7141 28.1954 23.8815 28.9035C23.0488 29.6117 21.9913 30.0004 20.8982 30H19.5002V20.0805L22.3532 21.0315ZM16.5002 15.9195L13.6502 14.9685C12.6134 14.6234 11.7331 13.9206 11.167 12.9858C10.601 12.051 10.386 10.9453 10.5607 9.86651C10.7353 8.78775 11.2882 7.80633 12.1203 7.09792C12.9524 6.3895 14.0094 6.00031 15.1022 6H16.5002V15.9195Z" fill="#2FAD66"/>
</g>
<defs>
<clipPath id="clip0_905_1531">
<rect width="36" height="36" fill="white"/>
</clipPath>
</defs>
</svg>
