<svg width="36" height="36" viewBox="0 0 36 36" fill="none" xmlns="http://www.w3.org/2000/svg">
<path d="M31.4999 18.6355V16.4995C31.4999 12.9191 30.0776 9.48531 27.5459 6.95357C25.0141 4.42183 21.5803 2.99951 17.9999 2.99951C14.4195 2.99951 10.9857 4.42183 8.45398 6.95357C5.92224 9.48531 4.49993 12.9191 4.49993 16.4995V18.6355C2.92666 19.3283 1.63913 20.5404 0.852858 22.0691C0.0665899 23.5978 -0.170683 25.3502 0.180762 27.0329C0.532207 28.7156 1.45104 30.2265 2.78343 31.3127C4.11582 32.3989 5.78091 32.9944 7.49993 32.9995C8.29558 32.9995 9.05864 32.6834 9.62125 32.1208C10.1839 31.5582 10.4999 30.7952 10.4999 29.9995V20.9995C10.4999 20.2039 10.1839 19.4408 9.62125 18.8782C9.05864 18.3156 8.29558 17.9995 7.49993 17.9995V16.4995C7.49993 13.7147 8.60617 11.044 10.5753 9.07489C12.5444 7.10576 15.2152 5.99951 17.9999 5.99951C20.7847 5.99951 23.4554 7.10576 25.4245 9.07489C27.3937 11.044 28.4999 13.7147 28.4999 16.4995V17.9995C27.7043 17.9995 26.9412 18.3156 26.3786 18.8782C25.816 19.4408 25.4999 20.2039 25.4999 20.9995V29.9995H20.9999C20.6021 29.9995 20.2206 30.1575 19.9393 30.4389C19.658 30.7202 19.4999 31.1017 19.4999 31.4995C19.4999 31.8973 19.658 32.2789 19.9393 32.5602C20.2206 32.8415 20.6021 32.9995 20.9999 32.9995H28.4999C30.2189 32.9944 31.884 32.3989 33.2164 31.3127C34.5488 30.2265 35.4676 28.7156 35.8191 27.0329C36.1705 25.3502 35.9333 23.5978 35.147 22.0691C34.3607 20.5404 33.0732 19.3283 31.4999 18.6355ZM7.49993 29.9995C6.30645 29.9995 5.16186 29.5254 4.31795 28.6815C3.47403 27.8376 2.99993 26.693 2.99993 25.4995C2.99993 24.306 3.47403 23.1614 4.31795 22.3175C5.16186 21.4736 6.30645 20.9995 7.49993 20.9995V29.9995ZM28.4999 29.9995V20.9995C29.6934 20.9995 30.838 21.4736 31.6819 22.3175C32.5258 23.1614 32.9999 24.306 32.9999 25.4995C32.9999 26.693 32.5258 27.8376 31.6819 28.6815C30.838 29.5254 29.6934 29.9995 28.4999 29.9995Z" fill="#2FAD66"/>
</svg>
