<svg width="36" height="36" viewBox="0 0 36 36" fill="none" xmlns="http://www.w3.org/2000/svg">
<g clip-path="url(#clip0_909_1677)">
<path d="M18 0C14.4399 0 10.9598 1.05568 7.99974 3.03355C5.03966 5.01141 2.73255 7.82263 1.37018 11.1117C0.00779915 14.4008 -0.348661 18.02 0.345873 21.5116C1.04041 25.0033 2.75474 28.2106 5.27209 30.7279C7.78943 33.2453 10.9967 34.9596 14.4884 35.6541C17.98 36.3487 21.5992 35.9922 24.8883 34.6298C28.1774 33.2675 30.9886 30.9604 32.9665 28.0003C34.9443 25.0402 36 21.5601 36 18C35.9948 13.2277 34.0968 8.65232 30.7222 5.27778C27.3477 1.90324 22.7723 0.00516162 18 0V0ZM18 33C15.0333 33 12.1332 32.1203 9.66645 30.472C7.19972 28.8238 5.27713 26.4811 4.14182 23.7403C3.0065 20.9994 2.70945 17.9834 3.28823 15.0736C3.86701 12.1639 5.29562 9.49119 7.39341 7.3934C9.49119 5.29561 12.1639 3.867 15.0737 3.28822C17.9834 2.70944 20.9994 3.00649 23.7403 4.14181C26.4812 5.27712 28.8238 7.19971 30.4721 9.66645C32.1203 12.1332 33 15.0333 33 18C32.9956 21.9769 31.4139 25.7897 28.6018 28.6018C25.7897 31.4139 21.9769 32.9956 18 33Z" fill="#2FAD66"/>
<path d="M19.0757 7.59425C18.2107 7.43664 17.3217 7.47108 16.4714 7.69511C15.6212 7.91914 14.8306 8.3273 14.1556 8.89071C13.4806 9.45411 12.9376 10.159 12.5652 10.9554C12.1927 11.7519 11.9999 12.6205 12.0002 13.4997C12.0002 13.8976 12.1583 14.2791 12.4396 14.5604C12.7209 14.8417 13.1024 14.9997 13.5002 14.9997C13.8981 14.9997 14.2796 14.8417 14.5609 14.5604C14.8422 14.2791 15.0002 13.8976 15.0002 13.4997C14.9999 13.0584 15.0969 12.6224 15.2843 12.2229C15.4718 11.8233 15.7451 11.4701 16.0848 11.1883C16.4244 10.9065 16.8221 10.7031 17.2494 10.5927C17.6767 10.4822 18.1231 10.4674 18.5567 10.5492C19.1493 10.6643 19.6941 10.9533 20.1216 11.3795C20.5491 11.8056 20.8398 12.3496 20.9567 12.9417C21.0748 13.5634 20.9933 14.2064 20.7239 14.7789C20.4545 15.3513 20.0109 15.824 19.4567 16.1292C18.539 16.6609 17.7806 17.429 17.2606 18.3535C16.7406 19.2779 16.4781 20.3248 16.5002 21.3852V22.4997C16.5002 22.8976 16.6583 23.2791 16.9396 23.5604C17.2209 23.8417 17.6024 23.9997 18.0002 23.9997C18.3981 23.9997 18.7796 23.8417 19.0609 23.5604C19.3422 23.2791 19.5002 22.8976 19.5002 22.4997V21.3852C19.4814 20.8633 19.6004 20.3455 19.8453 19.8842C20.0902 19.4228 20.4523 19.0341 20.8952 18.7572C21.982 18.1604 22.8572 17.2414 23.4004 16.1269C23.9435 15.0123 24.1281 13.7568 23.9286 12.533C23.7292 11.3093 23.1555 10.1774 22.2865 9.29299C21.4175 8.4086 20.2958 7.81514 19.0757 7.59425Z" fill="#2FAD66"/>
<path d="M19.5003 26.9995C19.5003 26.1711 18.8287 25.4995 18.0003 25.4995C17.1718 25.4995 16.5002 26.1711 16.5002 26.9995C16.5002 27.828 17.1718 28.4995 18.0003 28.4995C18.8287 28.4995 19.5003 27.828 19.5003 26.9995Z" fill="#2FAD66"/>
</g>
<defs>
<clipPath id="clip0_909_1677">
<rect width="36" height="36" fill="white"/>
</clipPath>
</defs>
</svg>
