<svg width="14" height="9" viewBox="0 0 14 9" fill="none" xmlns="http://www.w3.org/2000/svg">
<path d="M13.7098 7.7899C13.6169 7.88362 13.5063 7.95802 13.3844 8.00879C13.2625 8.05956 13.1318 8.08569 12.9998 8.08569C12.8678 8.08569 12.7371 8.05956 12.6152 8.00879C12.4934 7.95802 12.3828 7.88362 12.2898 7.7899L7.70982 3.2099C7.61685 3.11618 7.50625 3.04178 7.38439 2.99101C7.26253 2.94025 7.13183 2.91411 6.99982 2.91411C6.86781 2.91411 6.7371 2.94025 6.61524 2.99101C6.49338 3.04178 6.38278 3.11618 6.28982 3.2099L1.70982 7.7899C1.61685 7.88362 1.50625 7.95802 1.38439 8.00879C1.26253 8.05956 1.13183 8.08569 0.999816 8.08569C0.867804 8.08569 0.737098 8.05956 0.615239 8.00879C0.49338 7.95802 0.382779 7.88362 0.289816 7.7899C0.103565 7.60253 -0.000976562 7.34908 -0.000976562 7.0849C-0.000976562 6.82071 0.103565 6.56726 0.289816 6.3799L4.87982 1.78991C5.44232 1.22811 6.20481 0.912549 6.99982 0.912549C7.79482 0.912549 8.55732 1.22811 9.11982 1.78991L13.7098 6.3799C13.8961 6.56726 14.0006 6.82071 14.0006 7.0849C14.0006 7.34908 13.8961 7.60253 13.7098 7.7899Z" fill="#8A8A8A"/>
</svg>
